<svg id="Layer_1" data-name="Layer 1" xmlns="http://www.w3.org/2000/svg" viewBox="0 0 1000 1000"><polygon points="137.91 458.27 137.87 458.3 137.87 458.27 137.91 458.27"/><polygon points="177.16 534.77 189.38 547 179.76 558.71 168.62 572.24 157.48 558.71 108.96 499.77 103.22 492.8 103.19 492.76 103.14 492.71 98.5 486.12 112.09 476.52 137.87 458.3 137.91 458.27 159.44 458.27 159.44 475.46 143.38 475.46 123.04 489.82 168.61 545.17 177.16 534.77"/><polygon points="239.5 486.11 228.54 499.42 200.36 533.66 188.14 521.44 214.46 489.47 194.64 475.46 184.78 475.46 184.78 499.5 182.38 502.45 171.47 515.86 167.59 520.63 167.59 458.27 200.11 458.27 200.17 458.31 225.42 476.15 239.5 486.11"/><polygon points="200.17 458.27 200.17 458.31 200.12 458.27 200.17 458.27"/><path d="M171.49,453.6h-4.84c0-.1-.08-.18-.06-.24.14-.8-.18-1.13-1-1.39a10.78,10.78,0,0,1-7.51-10.46c-.06-3.69,0-7.38,0-11.07a2.42,2.42,0,0,1,3.27-2.54,10.82,10.82,0,0,1,7.18,5.55l.33.58c1-1.26,2-2.61,3.18-3.76a9.48,9.48,0,0,1,4.84-2.44,2.34,2.34,0,0,1,3,2.22c0,4.31.23,8.64-.12,12.92s-3,7.38-7.15,8.93C171.76,452.22,171.11,452.46,171.49,453.6Z"/><path d="M158.55,453.63q-8.53,0-17,0a.92.92,0,0,1-.66-.49q-1.9-5.14-3.76-10.31a2.44,2.44,0,0,1,2.29-3.41,11.06,11.06,0,0,1,8.88,3c.12.1.23.21.25.23.5-1.46.91-3,1.53-4.4a9.32,9.32,0,0,1,3.16-3.71c0,.48,0,.77,0,1.05,0,2.35-.05,4.69.06,7a15.16,15.16,0,0,0,4.45,10l.8.8S158.55,453.51,158.55,453.63Z"/><path d="M179.44,453.56c.74-.85,1.51-1.62,2.17-2.49a15.54,15.54,0,0,0,3.16-9.72c0-1.94,0-3.88,0-5.82,0-.26,0-.53,0-.95a11.33,11.33,0,0,1,4.44,8.2c.19-.15.36-.27.5-.4a11.06,11.06,0,0,1,8.83-3,2.45,2.45,0,0,1,2.27,3.48c-1.22,3.39-2.46,6.77-3.69,10.16-.12.34-.22.6-.69.6q-8.41,0-16.81,0A1,1,0,0,1,179.44,453.56Z"/><path d="M344.81,512.1c-10.5,11.45-17.61,15.17-29.49,15.17-21.65,0-36.82-15.07-36.82-36.5s15.49-37.35,36.18-37.35c5,0,10.08,1.17,16,3.71a14.52,14.52,0,0,0,4.78,1.38c2.12,0,3.07-1.06,4.67-4.77h2.75V478h-2.54c-3.61-7.86-6.05-11.36-10.61-15.39s-8.91-5.83-13.8-5.83c-12.52,0-19.09,11.35-19.09,33,0,10.51,1.37,17.94,4.45,23.45s9.55,9,16.45,9a26.93,26.93,0,0,0,9.34-1.8c5.19-2.12,8.48-4.56,14.53-11Z"/><path d="M380.35,525.25H352.77v-2.54c4.45-.64,5.51-1.91,5.62-6.16V485.89c-.11-4.25-1.38-5.63-5.62-6.16v-2.44H372.4v8.49c5-7.11,8.7-9.65,14.11-9.65,4.88,0,8.38,3.39,8.38,8.06,0,4-2.65,6.9-6.58,6.9-2.65,0-4.24-1-6.26-3.72-1.17-1.59-2-2.33-3-2.33-3.4,0-6.26,4.46-6.26,9.87v19.63c0,6.57,1.27,7.85,7.53,8.17Z"/><path d="M447.3,479.73c-3.18.43-4.24,1.38-5.94,5.73l-15.49,41.38c-3.72,9.87-5.73,13.9-8,16.24a11.28,11.28,0,0,1-8.7,3.5c-5.94,0-10.08-3.4-10.08-8.28a6.36,6.36,0,0,1,6.58-6.58c3.6,0,6,2.13,6,5.1a7.37,7.37,0,0,1-.1,1.48,1.55,1.55,0,0,0-.11.64,1.85,1.85,0,0,0,1.81,1.7c2.44,0,5-3.29,6.79-8.49l1.8-5.52-12.41-30.77c-1.81-4.35-6.48-14.43-6.79-14.43-.64-1.06-1.28-1.27-3.61-1.7v-2.44h26v2.44l-1.59.22c-2.65.21-3.92,1.06-3.92,2.54,0,.85,0,.85,2.12,6.16l7.43,19.2,7.11-20a13.13,13.13,0,0,0,1.06-4.66c0-2.55-1.17-3.29-5.63-3.51v-2.44h15.6Z"/><path d="M480.3,491.41c-1.49-4.57-2.66-6.48-4.88-8.6a11.34,11.34,0,0,0-7.75-3.29c-4,0-6.9,2.55-6.9,6.05s2.87,6.15,10.08,9.12c10.3,4.36,14.33,8.81,14.33,16.24,0,9.34-6.58,15.81-16,15.81a37.83,37.83,0,0,1-11.36-2.44,5.82,5.82,0,0,0-2.33-.64c-1,0-1.59.64-2.65,3h-2.66V509.44H453c2.23,9.13,7.11,13.8,14.32,13.8,4.67,0,7.85-2.66,7.85-6.79,0-3.29-2.86-6-10.08-9-10.39-4.46-14.74-9.23-14.74-16.13,0-8.81,6.89-15.17,16.23-15.17a25.22,25.22,0,0,1,8.17,1.48,12.51,12.51,0,0,0,3.29.74c1.38,0,2-.53,2.54-2H483v15.07Z"/><path d="M519.66,481.86H509.9v31.3c0,4.14,1.16,5.94,4,5.94,2.23,0,3.82-1.38,5.94-5.41l2.55,1.16c-4.14,8.49-8.38,11.68-15.39,11.68s-11.56-4.25-11.56-10.93V481.86h-5.41V479.1c6.79-5.84,10.92-10.51,17.18-19.42h2.66v17.61h9.76Z"/><path d="M575.25,520.8c-3.92,4.35-7.1,5.94-11.67,5.94-5.09,0-7.43-2-8.49-7.32-5.73,5.2-10.5,7.32-16.44,7.32-6.79,0-11.57-4.67-11.57-11,0-4.45,2.12-8,6.69-11.14,3.82-2.65,8.91-4.67,21.32-8.38v-7.64c0-6.37-2.65-9.12-8.7-9.12-3.71,0-6.58,1.69-6.58,3.82a3.92,3.92,0,0,0,1.17,2.33,6.76,6.76,0,0,1,1.91,4.46c0,3.6-2.86,6-7.11,6s-6.68-2.54-6.68-6.89c0-7.75,7.85-13.05,19.63-13.05,12.73,0,20.58,5.41,20.58,14.21v27.17c0,1.69.75,2.54,2.23,2.54a1.22,1.22,0,0,0,1.06-.42l1.06-1.06Zm-20.26-21c-8.38,2.23-12.73,6.58-12.73,12.52,0,4.14,2.12,7,5.3,7,2.55,0,4.56-1.17,7.43-4.46Z"/><path d="M603.79,525.25H579v-2.54c3.29,0,5.2-2.23,5.31-6.16v-53c-.11-3.93-1.8-5.84-5.31-6.05V455H598.7v61.54c0,4.14,1.8,6.26,5.09,6.16Z"/><path d="M635.2,522.71c5.83-.11,8.59-2.23,8.59-6.9V464.56c-.1-4.88-2.12-6.47-8.59-7V455h31.72C691,455,705.44,468,705.44,489.5s-15,35.75-37.35,35.75H635.2Zm25.46-7.11c0,4.67,1.38,6,6.05,6,6.79,0,11.78-2.34,15.28-7.22,3.39-4.67,5.41-13.58,5.41-23.45,0-8.81-1.49-16.45-4.24-21.86-3.61-7.21-8.92-10.61-16.34-10.61-4.14,0-6.16,1.17-6.16,3.61Z"/><path d="M754.66,513.69c-6.79,9.76-11.88,13-20.26,13-12.95,0-21.44-10-21.44-25.15s8.81-25.46,21.65-25.46a17.81,17.81,0,0,1,14,6c3.29,4,4.89,8.92,5.52,17.62H727.92c.43,7.11,1.17,10.61,3.19,13.9a10,10,0,0,0,9.23,5.51c4.45,0,7.64-1.9,11.78-6.89ZM741.29,496v-1.59a53.76,53.76,0,0,0-.85-10.19c-.84-3.29-2.75-4.88-5.72-4.88-5.2,0-7,4.14-7.33,16.66Z"/><path d="M802.19,515.81c-6.05,7.74-11.88,10.93-19.84,10.93-13.05,0-22.28-10.19-22.28-24.62,0-15.06,10.4-26,24.62-26,9,0,16,5,16,11.35,0,4.14-2.66,6.58-7,6.58-4,0-5.83-2.34-5.83-7.43,0-4.35-.11-4.35-.64-5.3a4.11,4.11,0,0,0-3.82-2c-5.41,0-8.7,6.58-8.7,17.19,0,14.22,5.73,23.24,14.75,23.24,4.24,0,7-1.49,10.82-5.84Z"/><path d="M852.91,501.49c0,14.53-9.87,25.25-23.35,25.25-13.68,0-23.55-10.61-23.55-25.47,0-14.21,10.19-25.14,23.45-25.14C842.93,476.13,852.91,486.84,852.91,501.49ZM821.29,503c0,15.28,2.12,20.58,8.27,20.58s8.07-5.41,8.07-21.43c0-17.08-2-22.81-8.07-22.81C823.2,479.31,821.29,484.72,821.29,503Z"/><path d="M887,525.25H859.38v-2.54c4.45-.64,5.51-1.91,5.62-6.16V485.89c-.11-4.25-1.38-5.63-5.62-6.16v-2.44H879v8.49c5-7.11,8.7-9.65,14.11-9.65,4.88,0,8.38,3.39,8.38,8.06,0,4-2.65,6.9-6.58,6.9-2.65,0-4.24-1-6.26-3.72-1.17-1.59-2-2.33-3-2.33-3.39,0-6.26,4.46-6.26,9.87v19.63c0,6.57,1.27,7.85,7.53,8.17Z"/></svg>