<svg width="100%" height="100%" id="svg" viewBox="0 0 1440 490" xmlns="http://www.w3.org/2000/svg" class="transition duration-300 ease-in-out delay-150"><defs><linearGradient id="gradient" x1="29%" y1="5%" x2="71%" y2="95%"><stop offset="5%" stop-color="#ffffff"></stop><stop offset="95%" stop-color="#e5e5e5"></stop></linearGradient></defs><path d="M 0,500 L 0,125 C 54.568298969072174,138.4766200294551 109.13659793814435,151.95324005891015 181,154 C 252.86340206185565,156.04675994108985 342.02190721649475,146.66365979381445 392,137 C 441.97809278350525,127.33634020618555 452.77577319587635,117.3921207658321 511,100 C 569.2242268041236,82.6078792341679 674.875,57.76785714285715 738,70 C 801.125,82.23214285714285 821.7242268041238,131.53645066273933 873,156 C 924.2757731958762,180.46354933726067 1006.2280927835052,180.08634020618558 1083,179 C 1159.7719072164948,177.91365979381442 1231.3634020618558,176.11818851251843 1290,167 C 1348.6365979381442,157.88181148748157 1394.3182989690722,141.44090574374079 1440,125 L 1440,500 L 0,500 Z" stroke="none" stroke-width="0" fill="url(#gradient)" fill-opacity="0.53" class="transition-all duration-300 ease-in-out delay-150 path-0"></path><defs><linearGradient id="gradient" x1="29%" y1="5%" x2="71%" y2="95%"><stop offset="5%" stop-color="#ffffff"></stop><stop offset="95%" stop-color="#e5e5e5"></stop></linearGradient></defs><path d="M 0,500 L 0,291 C 66.09075846833579,278.42378497790867 132.18151693667158,265.8475699558174 189,262 C 245.81848306332842,258.1524300441826 293.3646907216495,263.03350515463916 345,251 C 396.6353092783505,238.96649484536084 452.35972017673043,210.01840942562592 507,232 C 561.6402798232696,253.98159057437408 615.1964285714287,326.89285714285717 689,352 C 762.8035714285713,377.10714285714283 856.8545655375551,354.4101620029455 922,336 C 987.1454344624449,317.5898379970545 1023.3853092783506,303.4664948453608 1073,288 C 1122.6146907216494,272.5335051546392 1185.6041973490426,255.72385861561122 1249,256 C 1312.3958026509574,256.2761413843888 1376.1979013254786,273.6380706921944 1440,291 L 1440,500 L 0,500 Z" stroke="none" stroke-width="0" fill="url(#gradient)" fill-opacity="1" class="transition-all duration-300 ease-in-out delay-150 path-1"></path></svg>