<svg xmlns="http://www.w3.org/2000/svg" xmlns:xlink="http://www.w3.org/1999/xlink" width="45" zoomAndPan="magnify" viewBox="0 0 33.75 33.749998" height="45" preserveAspectRatio="xMidYMid meet" version="1.0"><defs><clipPath id="cb185cdbd7"><path d="M 6 24 L 28 24 L 28 33.5 L 6 33.5 Z M 6 24 " clip-rule="nonzero"/></clipPath><clipPath id="083cf7e73b"><path d="M 27 10 L 33.5 10 L 33.5 17 L 27 17 Z M 27 10 " clip-rule="nonzero"/></clipPath></defs><path fill="#ffffff" d="M 17.140625 0.574219 L 17.589844 1.53125 L 18.117188 2.65625 L 20.335938 2.996094 C 20.945312 3.085938 20.984375 3.363281 20.546875 3.8125 L 18.972656 5.433594 L 19.335938 7.640625 C 19.453125 8.363281 19.234375 8.535156 18.742188 8.265625 L 16.734375 7.152344 L 16.734375 7.144531 L 16.730469 7.152344 L 14.71875 8.265625 C 14.226562 8.539062 14.011719 8.363281 14.128906 7.644531 L 14.488281 5.433594 L 12.914062 3.8125 C 12.480469 3.367188 12.515625 3.089844 13.125 2.996094 L 15.347656 2.65625 L 16.320312 0.574219 C 16.5625 0.0546875 16.894531 0.0507812 17.140625 0.574219 Z M 17.140625 0.574219 " fill-opacity="1" fill-rule="nonzero"/><path fill="#ffffff" d="M 9.273438 4.605469 L 9.664062 5.4375 L 10.117188 6.40625 L 12.035156 6.699219 C 12.5625 6.777344 12.597656 7.015625 12.21875 7.40625 L 10.859375 8.808594 L 11.167969 10.714844 C 11.273438 11.339844 11.085938 11.492188 10.660156 11.257812 L 8.921875 10.292969 L 8.917969 10.289062 L 8.917969 10.292969 L 7.179688 11.257812 C 6.753906 11.492188 6.566406 11.34375 6.667969 10.71875 L 6.980469 8.808594 L 5.617188 7.40625 C 5.242188 7.019531 5.273438 6.78125 5.800781 6.699219 L 7.722656 6.40625 L 8.566406 4.605469 C 8.773438 4.15625 9.0625 4.152344 9.273438 4.605469 Z M 9.273438 4.605469 " fill-opacity="1" fill-rule="nonzero"/><path fill="#ffffff" d="M 24.898438 4.597656 L 25.285156 5.421875 L 25.742188 6.390625 L 27.660156 6.6875 C 28.1875 6.769531 28.21875 7.007812 27.84375 7.394531 L 26.480469 8.796875 L 26.792969 10.707031 C 26.894531 11.328125 26.710938 11.480469 26.28125 11.246094 L 24.542969 10.28125 L 24.542969 10.277344 L 24.539062 10.28125 L 22.800781 11.246094 C 22.378906 11.480469 22.191406 11.332031 22.292969 10.707031 L 22.601562 8.796875 L 21.242188 7.398438 C 20.867188 7.007812 20.898438 6.769531 21.425781 6.6875 L 23.34375 6.394531 L 24.1875 4.59375 C 24.398438 4.144531 24.6875 4.140625 24.898438 4.597656 Z M 24.898438 4.597656 " fill-opacity="1" fill-rule="nonzero"/><path fill="#ffffff" d="M 3.433594 10.75 L 3.765625 11.453125 L 4.152344 12.277344 L 5.792969 12.523438 C 6.246094 12.59375 6.273438 12.796875 5.949219 13.125 L 4.789062 14.3125 L 5.054688 15.933594 C 5.140625 16.460938 4.980469 16.585938 4.621094 16.386719 L 3.132812 15.574219 L 3.132812 15.566406 L 3.128906 15.574219 L 1.644531 16.390625 C 1.28125 16.589844 1.121094 16.460938 1.207031 15.929688 L 1.472656 14.3125 L 0.3125 13.125 C -0.0078125 12.796875 0.015625 12.59375 0.46875 12.527344 L 2.109375 12.277344 L 2.828125 10.75 C 3.007812 10.371094 3.253906 10.367188 3.433594 10.75 Z M 3.433594 10.75 " fill-opacity="1" fill-rule="nonzero"/><g clip-path="url(#cb185cdbd7)"><path fill="#ffffff" d="M 13.371094 24.410156 C 9.410156 25.230469 6.925781 27.574219 6.148438 30.953125 C 5.9375 31.863281 6.265625 32.128906 6.675781 32.257812 C 9.484375 33.121094 14.6875 33.429688 16.730469 33.429688 C 18.773438 33.429688 23.976562 33.121094 26.785156 32.257812 C 27.195312 32.128906 27.523438 31.863281 27.3125 30.953125 C 26.601562 27.84375 24.433594 25.613281 21.003906 24.636719 C 20.445312 24.976562 19.847656 25.253906 19.214844 25.457031 C 19.003906 26.121094 18.484375 26.660156 17.757812 26.660156 L 15.804688 26.660156 C 14.914062 26.660156 14.167969 25.914062 14.167969 25.023438 L 14.167969 24.855469 Z M 13.371094 24.410156 " fill-opacity="1" fill-rule="nonzero"/></g><path fill="#ffffff" d="M 17.015625 10.675781 C 15.550781 10.628906 14.070312 11.027344 12.789062 11.878906 C 11.355469 12.839844 10.351562 14.257812 9.886719 15.839844 C 9.761719 15.828125 9.605469 15.832031 9.425781 15.882812 C 8.75 16.078125 8.238281 16.632812 8.011719 17.121094 C 7.710938 17.757812 7.585938 18.601562 7.71875 19.472656 C 7.851562 20.339844 8.21875 21.054688 8.675781 21.496094 C 9.132812 21.941406 9.65625 22.089844 10.167969 21.976562 C 10.9375 21.8125 11.320312 21.691406 11.210938 20.976562 L 10.6875 17.507812 C 10.796875 15.632812 11.765625 13.863281 13.394531 12.78125 C 15.566406 11.328125 18.417969 11.421875 20.492188 13.011719 C 21.9375 14.121094 22.777344 15.777344 22.871094 17.515625 L 22.507812 19.941406 C 21.695312 22.164062 19.683594 23.703125 17.355469 23.921875 L 15.804688 23.921875 C 15.402344 23.921875 15.082031 24.242188 15.082031 24.644531 L 15.082031 25.023438 C 15.082031 25.421875 15.402344 25.746094 15.804688 25.746094 L 17.757812 25.746094 C 18.15625 25.746094 18.480469 25.421875 18.480469 25.023438 L 18.480469 24.824219 C 20.234375 24.394531 21.769531 23.316406 22.765625 21.8125 L 23.394531 21.976562 C 23.902344 22.109375 24.429688 21.941406 24.886719 21.496094 C 25.347656 21.054688 25.710938 20.339844 25.84375 19.472656 C 25.976562 18.601562 25.847656 17.757812 25.554688 17.121094 C 25.257812 16.484375 24.820312 16.074219 24.3125 15.929688 C 24.101562 15.871094 23.871094 15.847656 23.671875 15.84375 C 23.253906 14.410156 22.394531 13.105469 21.152344 12.152344 C 19.933594 11.21875 18.480469 10.722656 17.015625 10.675781 Z M 17.015625 10.675781 " fill-opacity="1" fill-rule="evenodd"/><path fill="#ffffff" d="M 16.730469 12.890625 C 13.984375 12.890625 11.769531 15.03125 11.769531 17.851562 C 11.769531 20.675781 13.984375 22.8125 16.730469 22.8125 C 19.480469 22.8125 21.695312 20.671875 21.695312 17.851562 C 21.695312 15.03125 19.480469 12.890625 16.730469 12.890625 Z M 14.363281 15.347656 C 14.851562 15.8125 15.726562 16.125 16.730469 16.125 C 17.734375 16.125 18.613281 15.8125 19.101562 15.347656 C 19.765625 15.972656 20.179688 16.863281 20.179688 17.851562 C 20.179688 19.761719 18.644531 21.300781 16.730469 21.300781 C 14.820312 21.300781 13.28125 19.761719 13.28125 17.851562 C 13.28125 16.863281 13.699219 15.972656 14.363281 15.347656 Z M 14.363281 15.347656 " fill-opacity="1" fill-rule="evenodd"/><g clip-path="url(#083cf7e73b)"><path fill="#ffffff" d="M 30.636719 10.75 L 30.96875 11.453125 L 31.355469 12.277344 L 32.996094 12.523438 C 33.445312 12.59375 33.472656 12.796875 33.152344 13.125 L 31.988281 14.3125 L 32.253906 15.933594 C 32.339844 16.460938 32.183594 16.585938 31.820312 16.386719 L 30.332031 15.574219 L 30.332031 15.566406 L 30.332031 15.574219 L 28.84375 16.390625 C 28.480469 16.589844 28.320312 16.460938 28.410156 15.933594 L 28.675781 14.3125 L 27.515625 13.125 C 27.191406 12.796875 27.21875 12.59375 27.667969 12.527344 L 29.308594 12.277344 L 30.027344 10.75 C 30.207031 10.371094 30.453125 10.367188 30.636719 10.75 Z M 30.636719 10.75 " fill-opacity="1" fill-rule="nonzero"/></g></svg>