<svg xmlns="http://www.w3.org/2000/svg" xmlns:xlink="http://www.w3.org/1999/xlink" width="45" zoomAndPan="magnify" viewBox="0 0 33.75 33.749998" height="45" preserveAspectRatio="xMidYMid meet" version="1.0"><defs><clipPath id="9a9db2ec9b"><path d="M 0 29 L 33.5 29 L 33.5 32.789062 L 0 32.789062 Z M 0 29 " clip-rule="nonzero"/></clipPath><clipPath id="550e98d0d8"><path d="M 15 0.773438 L 18 0.773438 L 18 13 L 15 13 Z M 15 0.773438 " clip-rule="nonzero"/></clipPath></defs><g clip-path="url(#9a9db2ec9b)"><path fill="#ffffff" d="M 32.140625 29.832031 L 1.449219 29.832031 C 0.652344 29.832031 0.0078125 30.152344 0.0078125 30.550781 C 0.0078125 30.554688 0.0078125 30.554688 0.0117188 30.558594 L 2.949219 32.714844 C 2.953125 32.71875 2.957031 32.71875 2.964844 32.71875 L 29.300781 32.71875 C 29.304688 32.71875 29.3125 32.71875 29.316406 32.714844 L 33.492188 30.566406 C 33.496094 30.566406 33.496094 30.5625 33.496094 30.5625 L 33.496094 30.511719 C 33.496094 30.136719 32.890625 29.832031 32.140625 29.832031 " fill-opacity="1" fill-rule="nonzero"/></g><path fill="#ffffff" d="M 3.191406 28.699219 C 3.746094 23.035156 9.605469 18.574219 16.753906 18.574219 C 23.898438 18.574219 29.757812 23.035156 30.3125 28.699219 L 30.335938 28.699219 C 30.351562 28.492188 30.359375 28.285156 30.359375 28.074219 C 30.359375 22.242188 24.757812 17.46875 17.671875 17.089844 C 17.808594 16.796875 17.886719 16.441406 17.886719 16.058594 C 17.886719 15.085938 17.378906 14.300781 16.753906 14.300781 C 16.125 14.300781 15.617188 15.085938 15.617188 16.058594 C 15.617188 16.441406 15.699219 16.796875 15.832031 17.089844 C 8.746094 17.46875 3.148438 22.242188 3.148438 28.074219 C 3.148438 28.285156 3.15625 28.492188 3.167969 28.699219 L 3.191406 28.699219 " fill-opacity="1" fill-rule="nonzero"/><path fill="#ffffff" d="M 18.367188 10.289062 C 18.511719 12.488281 20.054688 14.714844 20.054688 14.714844 C 19.378906 12.996094 19.304688 11.613281 19.367188 10.65625 C 19.523438 8.261719 20.628906 7.117188 20.160156 5.386719 C 19.835938 4.203125 18.953125 3.402344 18.257812 2.914062 C 18.59375 3.273438 19.082031 3.890625 19.316406 4.757812 C 19.886719 6.878906 18.207031 7.832031 18.367188 10.289062 " fill-opacity="1" fill-rule="nonzero"/><path fill="#ffffff" d="M 12.4375 10.289062 C 12.582031 12.488281 14.125 14.714844 14.125 14.714844 C 13.449219 12.996094 13.375 11.613281 13.4375 10.65625 C 13.59375 8.261719 14.699219 7.117188 14.226562 5.386719 C 13.90625 4.203125 13.023438 3.402344 12.328125 2.914062 C 12.664062 3.273438 13.152344 3.890625 13.386719 4.757812 C 13.957031 6.878906 12.277344 7.832031 12.4375 10.289062 " fill-opacity="1" fill-rule="nonzero"/><g clip-path="url(#550e98d0d8)"><path fill="#ffffff" d="M 15.53125 8.152344 C 15.671875 10.351562 17.214844 12.578125 17.214844 12.578125 C 16.542969 10.859375 16.46875 9.480469 16.53125 8.519531 C 16.6875 6.125 17.789062 4.980469 17.320312 3.25 C 17 2.066406 16.113281 1.265625 15.421875 0.777344 C 15.757812 1.136719 16.246094 1.753906 16.476562 2.621094 C 17.046875 4.742188 15.371094 5.695312 15.53125 8.152344 " fill-opacity="1" fill-rule="nonzero"/></g></svg>