<svg xmlns="http://www.w3.org/2000/svg" xmlns:xlink="http://www.w3.org/1999/xlink" width="45" zoomAndPan="magnify" viewBox="0 0 33.75 33.749998" height="45" preserveAspectRatio="xMidYMid meet" version="1.0"><defs><clipPath id="234cc0b8aa"><path d="M 0 0.671875 L 33.5 0.671875 L 33.5 32.683594 L 0 32.683594 Z M 0 0.671875 " clip-rule="nonzero"/></clipPath></defs><g clip-path="url(#234cc0b8aa)"><path fill="#ffffff" d="M 23.082031 6.136719 C 23.820312 6.574219 24.515625 7.085938 25.148438 7.660156 C 26.203125 7.308594 26.761719 6.492188 26.507812 5.644531 C 26.445312 5.429688 26.328125 5.230469 26.164062 5.066406 C 25.777344 4.675781 25.121094 4.480469 24.265625 4.722656 C 23.996094 5.183594 23.609375 5.65625 23.082031 6.136719 Z M 13.140625 4.65625 L 13.148438 4.652344 M 8.554688 7.660156 C 9.1875 7.082031 9.875 6.570312 10.617188 6.136719 C 10.089844 5.65625 9.703125 5.179688 9.4375 4.726562 C 8.578125 4.480469 7.921875 4.675781 7.535156 5.066406 C 7.207031 5.394531 7.066406 5.867188 7.160156 6.320312 C 7.269531 6.855469 7.707031 7.378906 8.554688 7.660156 Z M 13.6875 5.152344 L 13.65625 5.1875 C 12.375 6.972656 14.433594 9.050781 15.910156 10.539062 C 16.253906 10.882812 16.566406 11.199219 16.8125 11.484375 L 16.824219 11.484375 L 17.179688 11.101562 C 17.421875 10.847656 17.691406 10.59375 17.964844 10.328125 C 19.445312 8.90625 21.210938 7.210938 20.085938 5.296875 L 20.015625 5.183594 C 19.472656 4.339844 18.542969 4.140625 17.6875 4.695312 C 17.464844 4.839844 17.273438 5.003906 17.070312 5.238281 C 16.925781 5.410156 16.660156 5.414062 16.511719 5.242188 C 15.632812 4.230469 14.570312 4.144531 13.6875 5.152344 Z M 20.628906 4.78125 L 20.8125 5.097656 C 21.355469 5.28125 21.886719 5.503906 22.394531 5.761719 C 25.449219 3.167969 23.539062 1.015625 21.992188 1.746094 C 21.644531 1.90625 21.3125 2.210938 21.046875 2.6875 C 21.035156 2.714844 21.019531 2.742188 21.003906 2.761719 C 20.765625 3.21875 20.582031 3.816406 20.492188 4.589844 Z M 17.601562 3.902344 C 18.320312 3.554688 19.136719 3.546875 19.839844 3.988281 C 19.945312 3.40625 20.109375 2.914062 20.3125 2.507812 C 20.058594 1.574219 19.527344 1.085938 18.96875 0.953125 C 17.816406 0.675781 16.582031 1.886719 17.601562 3.902344 Z M 16.679688 4.375 C 16.707031 4.394531 16.734375 4.417969 16.757812 4.441406 C 16.796875 4.441406 16.8125 4.441406 16.820312 4.441406 C 16.875 4.394531 16.929688 4.347656 16.980469 4.304688 C 16.933594 4.210938 16.890625 4.121094 16.851562 4.035156 C 16.800781 4.144531 16.746094 4.257812 16.679688 4.375 Z M 15.53125 3.753906 C 15.710938 3.796875 15.890625 3.863281 16.070312 3.953125 C 17.140625 1.902344 15.894531 0.671875 14.726562 0.953125 C 14.175781 1.085938 13.640625 1.574219 13.386719 2.507812 C 13.59375 2.929688 13.761719 3.4375 13.867188 4.042969 C 14.378906 3.738281 14.949219 3.625 15.53125 3.753906 Z M 13.125 4.675781 L 13.207031 4.585938 C 12.761719 0.738281 9.921875 1.136719 9.695312 2.851562 C 9.546875 3.953125 10.453125 5.039062 11.304688 5.761719 C 11.796875 5.515625 12.308594 5.296875 12.835938 5.113281 L 13 4.84375 L 13.089844 4.71875 L 13.089844 4.714844 Z M 22.902344 25.328125 C 23.609375 24.652344 24.070312 23.617188 23.863281 22.550781 L 9.835938 22.550781 C 9.472656 24.417969 11.203125 26.234375 12.652344 26.101562 C 13.230469 26.046875 13.765625 25.65625 14.09375 24.792969 C 14.214844 24.480469 14.664062 24.480469 14.78125 24.792969 C 15.113281 25.664062 15.925781 26.253906 16.851562 26.253906 C 17.777344 26.253906 18.585938 25.664062 18.917969 24.792969 C 19.039062 24.480469 19.488281 24.480469 19.605469 24.792969 C 20.28125 26.566406 21.851562 26.332031 22.902344 25.328125 Z M 31.4375 31.007812 L 2.261719 31.007812 C 1.464844 31.007812 1.039062 31.980469 1.621094 32.558594 C 1.785156 32.722656 2.011719 32.824219 2.261719 32.824219 C 11.984375 32.824219 21.710938 32.824219 31.4375 32.824219 C 32.234375 32.824219 32.65625 31.851562 32.078125 31.273438 C 31.914062 31.109375 31.6875 31.007812 31.4375 31.007812 Z M 16.300781 30.269531 L 17.398438 30.269531 L 17.398438 26.9375 C 17.035156 27.007812 16.664062 27.007812 16.300781 26.9375 Z M 6.167969 12.21875 C 6.324219 12.433594 6.464844 12.6875 6.589844 12.976562 C 7.648438 10.207031 9.796875 7.964844 12.519531 6.785156 C 12.488281 6.53125 12.488281 6.273438 12.527344 6.015625 C 9.6875 7.160156 7.386719 9.40625 6.167969 12.21875 Z M 1.972656 17.566406 L 1.980469 17.535156 M 27.105469 12.972656 C 27.230469 12.683594 27.375 12.429688 27.527344 12.214844 C 26.308594 9.394531 24 7.148438 21.148438 6.003906 C 21.203125 6.273438 21.21875 6.539062 21.199219 6.792969 C 23.910156 7.972656 26.050781 10.210938 27.105469 12.972656 Z M 28.476562 28.371094 C 28.226562 28.1875 28.003906 27.960938 27.824219 27.695312 L 27.824219 30.269531 L 28.476562 30.269531 Z M 24.625 17.316406 C 24.882812 16.691406 25.492188 16.265625 26.191406 16.265625 C 23.5625 15.59375 21.609375 13.339844 21.339844 10.617188 C 21.292969 10.136719 22.023438 10.0625 22.070312 10.542969 C 22.3125 12.976562 24.066406 14.984375 26.421875 15.566406 C 26.46875 15.433594 26.53125 15.304688 26.609375 15.191406 C 26.636719 14.835938 26.679688 14.511719 26.738281 14.207031 C 26.320312 12.667969 25.554688 11.273438 24.527344 10.105469 C 23.566406 9.019531 22.382812 8.136719 21.046875 7.53125 C 20.554688 9.039062 19.03125 10.28125 17.871094 11.441406 C 19.101562 14.101562 21.816406 16.375 24.625 17.316406 Z M 27.445312 21.382812 C 27.175781 21.289062 26.941406 21.128906 26.753906 20.917969 L 25.984375 24.792969 C 26.167969 25.0625 26.414062 25.277344 26.699219 25.417969 C 26.894531 25.515625 27.230469 25.617188 27.445312 25.609375 Z M 29.214844 20.984375 C 28.957031 21.253906 28.578125 21.4375 28.183594 21.472656 L 28.183594 26.773438 C 28.332031 27.226562 28.632812 27.601562 29.011719 27.84375 C 29.3125 28.039062 29.660156 28.15625 30.027344 28.171875 Z M 31.46875 18.433594 C 31.257812 19.160156 30.582031 19.671875 29.808594 19.660156 L 29.929688 20.730469 C 30.886719 21.359375 31.882812 21.304688 32.363281 20.5625 C 32.480469 20.375 32.554688 20.15625 32.566406 19.925781 C 32.589844 19.414062 32.3125 18.839844 31.613281 18.40625 C 31.5625 18.417969 31.519531 18.425781 31.46875 18.433594 Z M 29.585938 15.492188 C 29.683594 15.734375 29.730469 16.003906 29.707031 16.269531 C 30.585938 16.199219 31.367188 16.820312 31.511719 17.675781 C 33.460938 17.222656 33.402344 15.433594 32.261719 14.929688 C 31.421875 14.558594 30.371094 14.976562 29.585938 15.492188 Z M 28.015625 14.441406 C 28.457031 14.441406 28.859375 14.613281 29.164062 14.890625 C 29.632812 14.582031 30.078125 14.367188 30.492188 14.234375 C 30.882812 13.507812 30.835938 12.867188 30.558594 12.4375 C 30.1875 11.859375 29.441406 11.679688 28.804688 12.019531 C 28.078125 12.410156 27.640625 13.367188 27.476562 14.25 L 27.421875 14.546875 C 27.609375 14.480469 27.808594 14.441406 28.015625 14.441406 Z M 28.660156 17.316406 C 28.089844 16.746094 27.105469 17.152344 27.105469 17.964844 C 27.105469 18.773438 28.089844 19.179688 28.660156 18.605469 C 29.019531 18.25 29.019531 17.671875 28.660156 17.316406 Z M 26.613281 18.824219 C 26.285156 18.296875 26.285156 17.625 26.613281 17.097656 C 25.992188 16.792969 25.234375 17.242188 25.234375 17.964844 C 25.234375 18.6875 25.996094 19.128906 26.613281 18.824219 Z M 28.878906 19.367188 C 28.351562 19.691406 27.679688 19.691406 27.152344 19.367188 C 26.847656 19.988281 27.300781 20.746094 28.015625 20.746094 C 28.738281 20.746094 29.183594 19.984375 28.878906 19.367188 Z M 29.421875 17.097656 C 29.746094 17.625 29.746094 18.296875 29.421875 18.824219 C 30.039062 19.128906 30.800781 18.683594 30.800781 17.960938 C 30.800781 17.242188 30.039062 16.792969 29.421875 17.097656 Z M 28.015625 16.3125 C 28.332031 16.3125 28.628906 16.402344 28.878906 16.558594 C 29.183594 15.9375 28.734375 15.179688 28.015625 15.179688 C 27.292969 15.179688 26.847656 15.941406 27.148438 16.558594 C 27.402344 16.402344 27.699219 16.3125 28.015625 16.3125 Z M 5.875 27.273438 C 5.71875 27.621094 5.492188 27.925781 5.222656 28.175781 L 5.222656 30.269531 L 5.875 30.269531 Z M 1.972656 17.566406 L 2.035156 17.359375 C 2.300781 16.671875 2.984375 16.207031 3.753906 16.269531 C 3.730469 15.960938 3.792969 15.652344 3.929688 15.378906 C 1.664062 14.011719 0.339844 15.324219 0.699219 16.503906 C 0.835938 16.960938 1.238281 17.390625 1.960938 17.613281 Z M 3.957031 20.597656 C 3.800781 20.3125 3.730469 19.980469 3.753906 19.652344 C 3.058594 19.710938 2.414062 19.328125 2.109375 18.726562 L 2 18.460938 C 0.046875 19.773438 1.699219 22.285156 3.957031 20.597656 Z M 5.28125 21.472656 C 4.96875 21.441406 4.679688 21.328125 4.441406 21.152344 C 4.363281 21.210938 4.285156 21.265625 4.207031 21.320312 L 3.4375 28.171875 C 3.921875 28.148438 4.277344 27.984375 4.640625 27.707031 C 4.929688 27.46875 5.15625 27.148438 5.28125 26.773438 Z M 6.707031 20.917969 C 6.519531 21.128906 6.285156 21.289062 6.019531 21.382812 L 6.019531 25.609375 C 6.273438 25.597656 6.535156 25.535156 6.761719 25.417969 C 7.046875 25.277344 7.292969 25.0625 7.476562 24.792969 Z M 7.476562 16.277344 C 8.113281 16.355469 8.648438 16.789062 8.863281 17.382812 C 11.746094 16.488281 14.542969 14.183594 15.808594 11.484375 C 14.699219 10.34375 13.242188 9.007812 12.699219 7.507812 C 11.347656 8.113281 10.148438 9.003906 9.179688 10.097656 C 8.148438 11.265625 7.375 12.667969 6.957031 14.214844 C 7.039062 14.628906 7.089844 15.09375 7.109375 15.609375 C 9.550781 15.09375 11.398438 13.046875 11.644531 10.546875 C 11.691406 10.0625 12.425781 10.136719 12.375 10.617188 C 12.105469 13.359375 10.128906 15.621094 7.476562 16.277344 Z M 4.398438 14.804688 C 4.945312 14.375 5.699219 14.324219 6.292969 14.671875 L 6.21875 14.238281 C 6.046875 13.332031 5.621094 12.476562 4.992188 12.082031 C 4.335938 11.667969 3.535156 11.824219 3.140625 12.441406 C 2.863281 12.871094 2.816406 13.507812 3.210938 14.238281 C 3.582031 14.359375 3.980469 14.542969 4.398438 14.804688 Z M 4.042969 18.824219 C 3.714844 18.296875 3.714844 17.625 4.042969 17.097656 C 3.253906 16.710938 2.410156 17.519531 2.734375 18.324219 C 2.9375 18.828125 3.539062 19.070312 4.042969 18.824219 Z M 6.308594 19.367188 C 5.78125 19.691406 5.113281 19.691406 4.582031 19.367188 C 4.246094 20.050781 4.828125 20.863281 5.59375 20.734375 C 6.257812 20.621094 6.582031 19.921875 6.308594 19.367188 Z M 6.851562 17.097656 C 7.175781 17.625 7.175781 18.296875 6.851562 18.824219 C 7.464844 19.128906 8.230469 18.683594 8.230469 17.960938 C 8.230469 17.320312 7.617188 16.867188 7.011719 17.035156 Z M 4.582031 16.558594 C 5.113281 16.230469 5.78125 16.230469 6.308594 16.558594 C 6.609375 15.945312 6.179688 15.164062 5.410156 15.179688 C 4.71875 15.195312 4.28125 15.949219 4.582031 16.558594 Z M 5.445312 17.050781 C 4.636719 17.050781 4.226562 18.035156 4.800781 18.605469 C 5.375 19.179688 6.359375 18.773438 6.359375 17.964844 C 6.359375 17.457031 5.949219 17.050781 5.445312 17.050781 Z M 5.445312 17.050781 " fill-opacity="1" fill-rule="nonzero"/></g></svg>