<svg xmlns="http://www.w3.org/2000/svg" xmlns:xlink="http://www.w3.org/1999/xlink" width="45" zoomAndPan="magnify" viewBox="0 0 33.75 33.749998" height="45" preserveAspectRatio="xMidYMid meet" version="1.0"><defs><clipPath id="4badcec7b0"><path d="M 0 0 L 33.5 0 L 33.5 33.5 L 0 33.5 Z M 0 0 " clip-rule="nonzero"/></clipPath></defs><g clip-path="url(#4badcec7b0)"><path fill="#ffffff" d="M 30.710938 0 L 17.140625 0 C 16.171875 -0.015625 15.367188 0.335938 14.71875 1.054688 C 13.5625 2.070312 12.542969 3.207031 11.660156 4.46875 C 10.777344 5.726562 10.054688 7.074219 9.492188 8.503906 C 8.929688 9.9375 8.542969 11.414062 8.335938 12.941406 C 8.128906 14.464844 8.101562 15.992188 8.261719 17.523438 L 8.621094 21.019531 L 6.21875 16.210938 C 6.15625 16.09375 6.085938 15.984375 6 15.882812 C 5.914062 15.78125 5.820312 15.691406 5.710938 15.613281 C 5.605469 15.535156 5.492188 15.46875 5.367188 15.417969 C 5.246094 15.367188 5.121094 15.332031 4.988281 15.308594 C 4.859375 15.289062 4.726562 15.28125 4.59375 15.292969 C 4.460938 15.300781 4.332031 15.328125 4.207031 15.367188 C 4.082031 15.410156 3.960938 15.464844 3.847656 15.53125 C 3.734375 15.601562 3.632812 15.683594 3.539062 15.777344 L 1.257812 18.050781 C 1.164062 18.144531 1.085938 18.25 1.015625 18.363281 C 0.945312 18.476562 0.890625 18.597656 0.851562 18.722656 C 0.808594 18.847656 0.785156 18.976562 0.773438 19.109375 C 0.765625 19.242188 0.769531 19.371094 0.792969 19.503906 C 0.8125 19.632812 0.847656 19.761719 0.902344 19.882812 C 0.953125 20.003906 1.015625 20.121094 1.09375 20.226562 C 1.175781 20.332031 1.265625 20.429688 1.363281 20.515625 C 1.464844 20.601562 1.574219 20.671875 1.695312 20.734375 L 7.644531 23.710938 L 3.160156 24.351562 C 1.996094 24.519531 0.996094 25.019531 0.164062 25.847656 C 0.113281 25.902344 0.0703125 25.960938 0.0429688 26.03125 C 0.015625 26.097656 0 26.167969 0 26.242188 C 0 26.71875 0.046875 27.191406 0.140625 27.660156 C 0.234375 28.125 0.371094 28.578125 0.554688 29.019531 C 0.738281 29.460938 0.960938 29.878906 1.226562 30.273438 C 1.492188 30.671875 1.792969 31.035156 2.128906 31.375 C 2.464844 31.710938 2.832031 32.011719 3.226562 32.277344 C 3.625 32.539062 4.042969 32.765625 4.480469 32.945312 C 4.921875 33.128906 5.375 33.269531 5.84375 33.359375 C 6.308594 33.453125 6.78125 33.5 7.257812 33.5 C 7.332031 33.5 7.402344 33.488281 7.472656 33.457031 C 7.539062 33.429688 7.601562 33.390625 7.652344 33.339844 C 8.484375 32.503906 8.984375 31.507812 9.152344 30.34375 L 9.792969 25.859375 L 12.765625 31.808594 C 13.019531 32.320312 13.429688 32.621094 13.996094 32.710938 C 14.085938 32.726562 14.179688 32.734375 14.269531 32.734375 C 14.730469 32.734375 15.125 32.570312 15.449219 32.242188 L 17.722656 29.96875 C 17.816406 29.871094 17.898438 29.769531 17.96875 29.65625 C 18.035156 29.542969 18.09375 29.421875 18.132812 29.296875 C 18.171875 29.171875 18.199219 29.042969 18.207031 28.910156 C 18.21875 28.777344 18.210938 28.644531 18.191406 28.515625 C 18.171875 28.382812 18.132812 28.257812 18.082031 28.136719 C 18.03125 28.015625 17.964844 27.898438 17.886719 27.792969 C 17.808594 27.6875 17.71875 27.589844 17.617188 27.503906 C 17.515625 27.417969 17.40625 27.347656 17.289062 27.285156 L 12.480469 24.882812 L 15.765625 25.222656 C 17.332031 25.386719 18.890625 25.355469 20.449219 25.136719 C 22.007812 24.917969 23.515625 24.511719 24.972656 23.925781 C 26.429688 23.335938 27.796875 22.578125 29.070312 21.652344 C 30.34375 20.730469 31.484375 19.664062 32.496094 18.460938 L 32.609375 18.332031 C 32.609375 18.328125 32.609375 18.324219 32.613281 18.320312 C 33.207031 17.679688 33.503906 16.921875 33.5 16.050781 L 33.5 2.792969 C 33.5 2.421875 33.429688 2.066406 33.289062 1.722656 C 33.148438 1.382812 32.945312 1.082031 32.683594 0.820312 C 32.421875 0.558594 32.121094 0.355469 31.777344 0.214844 C 31.4375 0.0703125 31.082031 0 30.710938 0 Z M 15.453125 1.914062 C 15.472656 1.890625 15.492188 1.867188 15.511719 1.84375 C 15.535156 1.820312 15.554688 1.796875 15.574219 1.773438 C 15.996094 1.316406 16.519531 1.097656 17.140625 1.117188 L 30.710938 1.117188 C 30.933594 1.117188 31.144531 1.160156 31.351562 1.246094 C 31.554688 1.328125 31.738281 1.449219 31.894531 1.605469 C 32.050781 1.765625 32.171875 1.945312 32.257812 2.152344 C 32.34375 2.355469 32.386719 2.570312 32.386719 2.792969 L 32.386719 16.050781 C 32.386719 16.230469 32.363281 16.410156 32.320312 16.585938 C 32.277344 16.761719 32.210938 16.929688 32.128906 17.089844 C 32.042969 17.25 31.941406 17.398438 31.824219 17.53125 C 31.703125 17.667969 31.566406 17.785156 31.417969 17.890625 C 31.269531 17.992188 31.109375 18.074219 30.941406 18.140625 C 30.773438 18.203125 30.597656 18.246094 30.417969 18.265625 C 30.238281 18.289062 30.058594 18.289062 29.878906 18.265625 C 29.699219 18.246094 29.527344 18.203125 29.355469 18.136719 L 28.445312 17.789062 C 28.46875 17.789062 28.492188 17.796875 28.515625 17.796875 C 28.734375 17.792969 28.949219 17.765625 29.15625 17.703125 C 29.445312 17.617188 29.703125 17.480469 29.9375 17.292969 C 30.171875 17.105469 30.359375 16.878906 30.5 16.617188 C 30.644531 16.355469 30.734375 16.074219 30.765625 15.777344 C 30.796875 15.480469 30.769531 15.1875 30.6875 14.902344 L 30.683594 14.890625 L 30.691406 14.890625 C 30.980469 14.8125 31.246094 14.675781 31.484375 14.488281 C 31.71875 14.300781 31.910156 14.078125 32.058594 13.8125 C 32.203125 13.546875 32.292969 13.265625 32.328125 12.964844 C 32.359375 12.667969 32.335938 12.371094 32.25 12.082031 C 32.164062 11.792969 32.027344 11.53125 31.835938 11.296875 C 31.644531 11.0625 31.417969 10.871094 31.152344 10.730469 C 30.886719 10.585938 30.601562 10.5 30.300781 10.472656 C 30 10.441406 29.707031 10.472656 29.417969 10.5625 L 29.410156 10.5625 L 29.410156 10.554688 C 29.335938 10.300781 29.222656 10.070312 29.066406 9.855469 C 28.910156 9.644531 28.722656 9.464844 28.503906 9.320312 C 28.285156 9.171875 28.046875 9.066406 27.792969 9.003906 C 27.539062 8.941406 27.28125 8.921875 27.015625 8.949219 C 27.03125 8.863281 27.039062 8.78125 27.042969 8.695312 C 27.042969 8.667969 27.042969 8.636719 27.042969 8.613281 C 27.378906 8.625 27.699219 8.566406 28.011719 8.445312 C 28.324219 8.324219 28.597656 8.148438 28.839844 7.917969 C 29.078125 7.683594 29.265625 7.414062 29.394531 7.105469 C 29.523438 6.796875 29.589844 6.476562 29.589844 6.140625 C 29.589844 5.808594 29.523438 5.488281 29.394531 5.179688 C 29.265625 4.871094 29.078125 4.601562 28.839844 4.367188 C 28.597656 4.136719 28.324219 3.957031 28.011719 3.835938 C 27.699219 3.714844 27.378906 3.660156 27.042969 3.671875 C 27.042969 3.644531 27.042969 3.613281 27.042969 3.589844 C 27.042969 3.261719 26.980469 2.945312 26.855469 2.644531 C 26.730469 2.339844 26.550781 2.074219 26.320312 1.839844 C 26.085938 1.609375 25.820312 1.429688 25.515625 1.304688 C 25.214844 1.179688 24.898438 1.117188 24.570312 1.117188 C 24.242188 1.117188 23.925781 1.179688 23.625 1.304688 C 23.320312 1.429688 23.054688 1.609375 22.820312 1.839844 C 22.589844 2.074219 22.410156 2.339844 22.285156 2.644531 C 22.160156 2.945312 22.097656 3.261719 22.097656 3.589844 C 22.097656 3.617188 22.097656 3.644531 22.097656 3.671875 C 21.792969 3.660156 21.496094 3.707031 21.210938 3.808594 C 20.921875 3.90625 20.664062 4.054688 20.429688 4.25 C 20.195312 4.449219 20.007812 4.679688 19.859375 4.945312 C 19.714844 5.210938 19.621094 5.496094 19.578125 5.796875 C 19.535156 6.101562 19.550781 6.398438 19.621094 6.695312 C 19.6875 6.992188 19.808594 7.265625 19.980469 7.519531 C 20.148438 7.769531 20.359375 7.984375 20.609375 8.15625 C 20.859375 8.332031 21.132812 8.457031 21.425781 8.527344 C 19.84375 9.03125 18.21875 9.234375 16.558594 9.132812 C 15.898438 7.28125 15.402344 5.507812 15.046875 4.125 C 14.824219 3.324219 14.960938 2.585938 15.453125 1.914062 Z M 17.132812 10.285156 C 17.136719 10.304688 17.140625 10.328125 17.144531 10.347656 C 17.371094 10.890625 17.671875 11.386719 18.046875 11.839844 C 18.421875 12.292969 18.855469 12.679688 19.347656 13.003906 C 19.839844 13.324219 20.367188 13.566406 20.933594 13.730469 C 21.5 13.894531 22.074219 13.96875 22.664062 13.960938 C 22.746094 13.960938 22.832031 13.960938 22.910156 13.957031 C 23.011719 13.953125 23.101562 13.925781 23.1875 13.871094 C 23.273438 13.820312 23.339844 13.75 23.386719 13.660156 C 23.433594 13.574219 23.453125 13.480469 23.453125 13.378906 C 23.449219 13.28125 23.421875 13.1875 23.367188 13.105469 L 22.984375 12.480469 C 22.277344 11.332031 21.296875 10.515625 20.035156 10.027344 C 20.78125 9.882812 21.507812 9.691406 22.222656 9.441406 C 22.308594 9.730469 22.441406 9.992188 22.625 10.230469 C 22.808594 10.464844 23.03125 10.664062 23.285156 10.816406 C 23.542969 10.972656 23.816406 11.078125 24.113281 11.128906 C 24.40625 11.183594 24.703125 11.179688 24.996094 11.125 C 24.984375 11.363281 25.011719 11.597656 25.078125 11.828125 L 25.078125 11.835938 L 25.070312 11.835938 C 24.78125 11.921875 24.523438 12.054688 24.289062 12.246094 C 24.054688 12.433594 23.867188 12.65625 23.722656 12.921875 C 23.582031 13.183594 23.492188 13.464844 23.460938 13.761719 C 23.429688 14.058594 23.457031 14.351562 23.539062 14.636719 C 23.625 14.925781 23.761719 15.183594 23.949219 15.417969 C 24.136719 15.652344 24.363281 15.839844 24.625 15.980469 C 24.886719 16.125 25.167969 16.214844 25.464844 16.246094 C 25.761719 16.277344 26.054688 16.25 26.34375 16.167969 L 26.351562 16.167969 L 26.351562 16.171875 C 26.476562 16.609375 26.714844 16.972656 27.0625 17.265625 L 22.085938 15.371094 C 21.777344 15.253906 21.464844 15.230469 21.140625 15.296875 C 20.816406 15.367188 20.539062 15.519531 20.304688 15.75 L 19.972656 16.085938 C 19.371094 15.179688 18.824219 14.246094 18.324219 13.285156 C 17.824219 12.308594 17.375 11.304688 16.980469 10.28125 Z M 18.636719 10.785156 C 19.28125 10.890625 19.886719 11.117188 20.441406 11.464844 C 21 11.8125 21.464844 12.25 21.847656 12.785156 C 21.191406 12.699219 20.585938 12.480469 20.023438 12.132812 C 19.464844 11.785156 19 11.335938 18.636719 10.785156 Z M 23.355469 4.183594 C 23.261719 3.996094 23.214844 3.800781 23.210938 3.589844 C 23.210938 3.410156 23.246094 3.238281 23.316406 3.070312 C 23.382812 2.90625 23.484375 2.757812 23.609375 2.632812 C 23.738281 2.503906 23.882812 2.40625 24.050781 2.339844 C 24.214844 2.269531 24.386719 2.234375 24.566406 2.234375 C 24.746094 2.234375 24.921875 2.269531 25.085938 2.339844 C 25.253906 2.40625 25.398438 2.503906 25.527344 2.632812 C 25.652344 2.757812 25.75 2.90625 25.820312 3.070312 C 25.890625 3.238281 25.925781 3.410156 25.925781 3.589844 C 25.921875 3.800781 25.875 3.996094 25.777344 4.183594 C 25.660156 4.421875 25.695312 4.636719 25.886719 4.824219 C 26.074219 5.011719 26.289062 5.046875 26.527344 4.929688 C 26.628906 4.878906 26.738281 4.84375 26.851562 4.820312 C 26.960938 4.796875 27.074219 4.785156 27.191406 4.792969 C 27.304688 4.796875 27.417969 4.816406 27.527344 4.851562 C 27.636719 4.886719 27.742188 4.933594 27.839844 4.992188 C 27.9375 5.054688 28.023438 5.125 28.105469 5.210938 C 28.183594 5.292969 28.25 5.386719 28.308594 5.484375 C 28.363281 5.585938 28.40625 5.691406 28.433594 5.804688 C 28.460938 5.914062 28.476562 6.027344 28.476562 6.140625 C 28.476562 6.257812 28.460938 6.371094 28.433594 6.480469 C 28.40625 6.59375 28.363281 6.699219 28.308594 6.796875 C 28.25 6.898438 28.183594 6.992188 28.105469 7.074219 C 28.023438 7.15625 27.9375 7.230469 27.839844 7.289062 C 27.742188 7.351562 27.636719 7.398438 27.527344 7.433594 C 27.417969 7.464844 27.304688 7.484375 27.191406 7.492188 C 27.074219 7.496094 26.960938 7.488281 26.851562 7.464844 C 26.738281 7.441406 26.628906 7.402344 26.527344 7.351562 C 26.289062 7.234375 26.074219 7.269531 25.886719 7.460938 C 25.695312 7.648438 25.660156 7.863281 25.777344 8.101562 C 25.875 8.289062 25.921875 8.484375 25.925781 8.695312 C 25.925781 8.875 25.890625 9.046875 25.820312 9.214844 C 25.753906 9.378906 25.652344 9.527344 25.527344 9.652344 C 25.398438 9.78125 25.253906 9.878906 25.085938 9.949219 C 24.921875 10.015625 24.746094 10.050781 24.566406 10.050781 C 24.386719 10.050781 24.214844 10.015625 24.050781 9.949219 C 23.882812 9.878906 23.734375 9.78125 23.609375 9.652344 C 23.480469 9.527344 23.382812 9.378906 23.316406 9.214844 C 23.246094 9.046875 23.210938 8.875 23.210938 8.695312 C 23.214844 8.484375 23.261719 8.289062 23.355469 8.101562 C 23.398438 8.015625 23.417969 7.921875 23.414062 7.824219 C 23.410156 7.730469 23.378906 7.640625 23.328125 7.558594 C 23.277344 7.476562 23.210938 7.414062 23.125 7.367188 C 23.042969 7.320312 22.949219 7.296875 22.855469 7.296875 C 22.769531 7.296875 22.6875 7.316406 22.609375 7.351562 C 22.503906 7.402344 22.398438 7.441406 22.285156 7.464844 C 22.171875 7.488281 22.058594 7.496094 21.945312 7.492188 C 21.828125 7.484375 21.71875 7.464844 21.605469 7.429688 C 21.496094 7.398438 21.394531 7.347656 21.296875 7.289062 C 21.199219 7.226562 21.109375 7.15625 21.03125 7.074219 C 20.953125 6.988281 20.882812 6.898438 20.828125 6.796875 C 20.773438 6.695312 20.730469 6.589844 20.699219 6.480469 C 20.671875 6.367188 20.65625 6.253906 20.65625 6.140625 C 20.65625 6.027344 20.671875 5.914062 20.699219 5.800781 C 20.730469 5.691406 20.773438 5.585938 20.828125 5.484375 C 20.882812 5.382812 20.953125 5.292969 21.03125 5.207031 C 21.109375 5.125 21.199219 5.054688 21.296875 4.992188 C 21.394531 4.933594 21.496094 4.886719 21.605469 4.851562 C 21.71875 4.816406 21.828125 4.796875 21.945312 4.792969 C 22.058594 4.785156 22.171875 4.792969 22.285156 4.816406 C 22.398438 4.839844 22.503906 4.878906 22.609375 4.929688 C 22.847656 5.046875 23.0625 5.011719 23.25 4.824219 C 23.4375 4.636719 23.472656 4.421875 23.355469 4.183594 Z M 28.644531 11.96875 C 28.878906 12.09375 29.09375 12.070312 29.289062 11.890625 C 29.417969 11.769531 29.566406 11.683594 29.734375 11.632812 C 29.902344 11.578125 30.074219 11.566406 30.246094 11.59375 C 30.417969 11.621094 30.578125 11.683594 30.722656 11.785156 C 30.863281 11.882812 30.980469 12.011719 31.066406 12.164062 C 31.152344 12.316406 31.199219 12.480469 31.210938 12.65625 C 31.21875 12.828125 31.191406 12.996094 31.125 13.160156 C 31.054688 13.320312 30.957031 13.460938 30.828125 13.574219 C 30.695312 13.691406 30.546875 13.773438 30.378906 13.820312 C 30.207031 13.867188 30.039062 13.875 29.867188 13.84375 C 29.605469 13.796875 29.410156 13.890625 29.28125 14.125 C 29.152344 14.359375 29.179688 14.574219 29.359375 14.769531 C 29.480469 14.898438 29.566406 15.046875 29.617188 15.21875 C 29.660156 15.363281 29.671875 15.511719 29.65625 15.660156 C 29.640625 15.8125 29.597656 15.953125 29.523438 16.085938 C 29.449219 16.21875 29.355469 16.332031 29.238281 16.429688 C 29.121094 16.523438 28.988281 16.589844 28.84375 16.632812 C 28.695312 16.675781 28.550781 16.691406 28.398438 16.671875 C 28.25 16.65625 28.105469 16.613281 27.972656 16.539062 C 27.839844 16.464844 27.726562 16.371094 27.632812 16.253906 C 27.539062 16.132812 27.46875 16.003906 27.425781 15.859375 C 27.378906 15.6875 27.371094 15.515625 27.402344 15.34375 C 27.449219 15.082031 27.355469 14.886719 27.121094 14.757812 C 26.886719 14.632812 26.671875 14.65625 26.476562 14.839844 C 26.402344 14.90625 26.324219 14.960938 26.238281 15.007812 C 26.15625 15.054688 26.066406 15.089844 25.96875 15.113281 C 25.875 15.136719 25.78125 15.148438 25.683594 15.144531 C 25.585938 15.144531 25.488281 15.132812 25.394531 15.105469 C 25.300781 15.078125 25.210938 15.042969 25.128906 14.996094 C 25.042969 14.945312 24.96875 14.886719 24.898438 14.820312 C 24.828125 14.75 24.769531 14.675781 24.71875 14.59375 C 24.667969 14.507812 24.628906 14.421875 24.601562 14.328125 C 24.574219 14.234375 24.558594 14.136719 24.554688 14.042969 C 24.554688 13.945312 24.5625 13.847656 24.582031 13.753906 C 24.605469 13.65625 24.636719 13.566406 24.683594 13.480469 C 24.726562 13.394531 24.78125 13.316406 24.847656 13.242188 C 24.914062 13.171875 24.988281 13.109375 25.066406 13.054688 C 25.148438 13 25.234375 12.957031 25.328125 12.925781 C 25.417969 12.894531 25.515625 12.875 25.609375 12.867188 C 25.707031 12.859375 25.804688 12.867188 25.898438 12.882812 C 26.164062 12.929688 26.359375 12.835938 26.484375 12.601562 C 26.613281 12.367188 26.585938 12.152344 26.40625 11.957031 C 26.339844 11.882812 26.285156 11.804688 26.238281 11.722656 C 26.191406 11.636719 26.15625 11.546875 26.132812 11.449219 C 26.109375 11.355469 26.097656 11.261719 26.097656 11.164062 C 26.101562 11.066406 26.113281 10.96875 26.136719 10.875 C 26.164062 10.78125 26.203125 10.695312 26.25 10.609375 C 26.296875 10.523438 26.355469 10.449219 26.425781 10.378906 C 26.492188 10.308594 26.566406 10.25 26.652344 10.199219 C 26.734375 10.148438 26.824219 10.109375 26.917969 10.082031 C 27.011719 10.054688 27.105469 10.039062 27.203125 10.035156 C 27.300781 10.035156 27.394531 10.042969 27.492188 10.066406 C 27.585938 10.085938 27.675781 10.121094 27.761719 10.164062 C 27.847656 10.207031 27.929688 10.261719 28 10.328125 C 28.074219 10.394531 28.136719 10.46875 28.191406 10.546875 C 28.242188 10.628906 28.285156 10.714844 28.316406 10.808594 C 28.347656 10.898438 28.367188 10.996094 28.375 11.089844 C 28.382812 11.1875 28.378906 11.285156 28.359375 11.378906 C 28.3125 11.644531 28.410156 11.839844 28.644531 11.96875 Z M 13.839844 3.5 C 13.84375 3.808594 13.886719 4.109375 13.964844 4.40625 C 14.742188 7.660156 15.867188 10.792969 17.335938 13.800781 C 18.523438 16.089844 19.96875 18.203125 21.671875 20.136719 C 21.820312 20.304688 21.859375 20.492188 21.789062 20.703125 C 21.722656 20.902344 21.585938 21.023438 21.375 21.0625 L 9.984375 23.34375 L 9.371094 17.40625 C 9.242188 16.15625 9.242188 14.90625 9.375 13.65625 C 9.503906 12.40625 9.761719 11.183594 10.148438 9.984375 C 10.53125 8.789062 11.035156 7.644531 11.65625 6.550781 C 12.28125 5.460938 13.007812 4.441406 13.839844 3.5 Z M 1.890625 19.324219 C 1.859375 19.136719 1.914062 18.976562 2.046875 18.84375 L 4.324219 16.566406 C 4.433594 16.457031 4.5625 16.402344 4.714844 16.402344 C 4.746094 16.402344 4.777344 16.40625 4.808594 16.410156 C 4.996094 16.4375 5.132812 16.539062 5.214844 16.710938 L 8.242188 22.761719 L 2.195312 19.734375 C 2.023438 19.652344 1.921875 19.515625 1.890625 19.324219 Z M 3.316406 25.457031 L 8.554688 24.707031 L 6.597656 28.929688 C 6.074219 28.140625 5.417969 27.476562 4.632812 26.945312 C 3.851562 26.410156 2.992188 26.042969 2.066406 25.84375 C 2.460938 25.648438 2.878906 25.519531 3.316406 25.457031 Z M 1.144531 26.828125 C 1.855469 26.898438 2.53125 27.085938 3.175781 27.390625 C 3.820312 27.695312 4.394531 28.097656 4.898438 28.601562 C 5.402344 29.105469 5.808594 29.679688 6.113281 30.324219 C 6.417969 30.96875 6.601562 31.648438 6.671875 32.355469 C 5.960938 32.289062 5.285156 32.101562 4.640625 31.796875 C 3.996094 31.492188 3.421875 31.089844 2.917969 30.585938 C 2.414062 30.078125 2.007812 29.503906 1.703125 28.859375 C 1.402344 28.214844 1.214844 27.539062 1.144531 26.828125 Z M 7.65625 31.4375 C 7.5625 31 7.429688 30.574219 7.257812 30.160156 L 8.402344 27.695312 L 8.046875 30.183594 C 7.984375 30.621094 7.851562 31.039062 7.65625 31.4375 Z M 17.09375 28.695312 C 17.125 28.882812 17.074219 29.046875 16.9375 29.179688 L 14.660156 31.457031 C 14.597656 31.519531 14.523438 31.5625 14.4375 31.589844 C 14.351562 31.617188 14.265625 31.625 14.175781 31.609375 C 14.089844 31.597656 14.007812 31.5625 13.9375 31.511719 C 13.863281 31.457031 13.808594 31.390625 13.769531 31.308594 L 10.742188 25.257812 L 16.789062 28.285156 C 16.960938 28.367188 17.0625 28.503906 17.09375 28.691406 Z M 15.882812 24.113281 L 13.21875 23.835938 L 21.59375 22.160156 C 21.886719 22.105469 22.144531 21.976562 22.371094 21.78125 C 22.59375 21.585938 22.753906 21.34375 22.847656 21.0625 C 22.945312 20.773438 22.964844 20.484375 22.90625 20.1875 C 22.84375 19.890625 22.714844 19.628906 22.511719 19.402344 C 21.84375 18.640625 21.210938 17.847656 20.621094 17.023438 L 21.101562 16.542969 C 21.273438 16.371094 21.46875 16.328125 21.695312 16.414062 L 28.960938 19.183594 C 29.3125 19.316406 29.679688 19.386719 30.058594 19.394531 C 29.113281 20.269531 28.085938 21.035156 26.976562 21.6875 C 25.867188 22.34375 24.703125 22.875 23.480469 23.28125 C 22.257812 23.6875 21.003906 23.960938 19.726562 24.101562 C 18.445312 24.238281 17.164062 24.242188 15.882812 24.109375 Z M 15.882812 24.113281 " fill-opacity="1" fill-rule="nonzero"/></g><path fill="#ffffff" d="M 22.335938 5.582031 C 22.179688 5.582031 22.046875 5.636719 21.941406 5.746094 C 21.832031 5.855469 21.777344 5.988281 21.777344 6.140625 C 21.777344 6.296875 21.832031 6.429688 21.941406 6.535156 C 22.046875 6.644531 22.179688 6.699219 22.335938 6.699219 L 22.996094 6.699219 C 23.171875 7.199219 23.511719 7.535156 24.007812 7.714844 L 24.007812 8.375 C 24.007812 8.53125 24.0625 8.660156 24.171875 8.769531 C 24.28125 8.878906 24.414062 8.933594 24.566406 8.933594 C 24.722656 8.933594 24.855469 8.878906 24.960938 8.769531 C 25.070312 8.660156 25.125 8.53125 25.125 8.375 L 25.125 7.714844 C 25.625 7.535156 25.960938 7.199219 26.140625 6.699219 L 26.800781 6.699219 C 26.957031 6.699219 27.085938 6.644531 27.195312 6.535156 C 27.304688 6.429688 27.359375 6.296875 27.359375 6.140625 C 27.359375 5.988281 27.304688 5.855469 27.195312 5.746094 C 27.085938 5.636719 26.957031 5.582031 26.800781 5.582031 L 26.140625 5.582031 C 25.960938 5.085938 25.625 4.746094 25.125 4.570312 L 25.125 3.910156 C 25.125 3.753906 25.070312 3.621094 24.960938 3.515625 C 24.855469 3.40625 24.722656 3.351562 24.566406 3.351562 C 24.414062 3.351562 24.28125 3.40625 24.171875 3.515625 C 24.0625 3.621094 24.007812 3.753906 24.007812 3.910156 L 24.007812 4.570312 C 23.511719 4.746094 23.171875 5.085938 22.996094 5.582031 Z M 24.566406 5.582031 C 24.722656 5.582031 24.855469 5.636719 24.960938 5.746094 C 25.070312 5.855469 25.125 5.988281 25.125 6.140625 C 25.125 6.296875 25.070312 6.429688 24.960938 6.535156 C 24.855469 6.644531 24.722656 6.699219 24.566406 6.699219 C 24.414062 6.699219 24.28125 6.644531 24.171875 6.535156 C 24.0625 6.429688 24.007812 6.296875 24.007812 6.140625 C 24.007812 5.988281 24.0625 5.855469 24.171875 5.746094 C 24.28125 5.636719 24.414062 5.582031 24.566406 5.582031 Z M 24.566406 5.582031 " fill-opacity="1" fill-rule="nonzero"/><path fill="#ffffff" d="M 27.4375 11.855469 C 27.238281 11.914062 27.058594 12.007812 26.894531 12.140625 C 26.734375 12.269531 26.601562 12.429688 26.5 12.609375 C 26.402344 12.792969 26.339844 12.988281 26.320312 13.195312 C 26.296875 13.402344 26.316406 13.605469 26.375 13.808594 C 26.433594 14.007812 26.527344 14.1875 26.660156 14.351562 C 26.789062 14.511719 26.945312 14.644531 27.128906 14.742188 C 27.3125 14.84375 27.507812 14.90625 27.714844 14.925781 C 27.921875 14.949219 28.125 14.929688 28.324219 14.871094 C 28.523438 14.8125 28.707031 14.71875 28.867188 14.585938 C 29.03125 14.457031 29.160156 14.300781 29.261719 14.117188 C 29.363281 13.933594 29.421875 13.738281 29.445312 13.53125 C 29.464844 13.324219 29.449219 13.121094 29.390625 12.921875 C 29.332031 12.71875 29.234375 12.539062 29.105469 12.378906 C 28.972656 12.214844 28.816406 12.085938 28.632812 11.984375 C 28.449219 11.886719 28.253906 11.824219 28.046875 11.800781 C 27.839844 11.777344 27.636719 11.796875 27.4375 11.855469 Z M 27.882812 12.910156 C 28 12.910156 28.101562 12.949219 28.1875 13.027344 C 28.273438 13.105469 28.324219 13.203125 28.335938 13.320312 C 28.34375 13.4375 28.316406 13.542969 28.246094 13.636719 C 28.175781 13.730469 28.082031 13.789062 27.96875 13.8125 C 27.851562 13.832031 27.746094 13.8125 27.644531 13.753906 C 27.542969 13.691406 27.476562 13.605469 27.445312 13.492188 C 27.410156 13.371094 27.421875 13.257812 27.480469 13.148438 C 27.542969 13.035156 27.632812 12.964844 27.753906 12.929688 C 27.792969 12.914062 27.835938 12.910156 27.882812 12.910156 Z M 27.882812 12.910156 " fill-opacity="1" fill-rule="nonzero"/><path fill="#ffffff" d="M 18.078125 8.933594 C 18.089844 8.933594 18.101562 8.933594 18.113281 8.933594 C 18.328125 8.921875 18.480469 8.816406 18.578125 8.625 L 18.902344 7.972656 C 19.371094 7.046875 19.582031 6.070312 19.542969 5.035156 C 19.503906 4 19.214844 3.039062 18.679688 2.152344 L 18.558594 1.945312 C 18.457031 1.777344 18.308594 1.6875 18.113281 1.675781 C 17.921875 1.660156 17.761719 1.730469 17.640625 1.882812 C 17.285156 2.378906 17.015625 2.917969 16.828125 3.496094 C 16.640625 4.074219 16.546875 4.667969 16.542969 5.277344 C 16.539062 5.886719 16.628906 6.484375 16.8125 7.066406 C 16.996094 7.644531 17.261719 8.1875 17.613281 8.683594 C 17.722656 8.851562 17.878906 8.933594 18.078125 8.933594 Z M 18.054688 3.382812 C 18.304688 3.988281 18.429688 4.617188 18.429688 5.273438 C 18.429688 5.929688 18.300781 6.558594 18.046875 7.164062 C 17.773438 6.5625 17.640625 5.933594 17.640625 5.273438 C 17.644531 4.613281 17.78125 3.980469 18.054688 3.382812 Z M 18.054688 3.382812 " fill-opacity="1" fill-rule="nonzero"/><path fill="#ffffff" d="M 30.710938 7.257812 C 30.710938 7.414062 30.65625 7.542969 30.546875 7.652344 C 30.4375 7.761719 30.304688 7.816406 30.152344 7.816406 C 29.996094 7.816406 29.867188 7.871094 29.757812 7.980469 C 29.648438 8.089844 29.59375 8.222656 29.59375 8.375 C 29.59375 8.53125 29.648438 8.660156 29.757812 8.769531 C 29.867188 8.878906 29.996094 8.933594 30.152344 8.933594 C 30.375 8.933594 30.585938 8.890625 30.792969 8.804688 C 30.996094 8.722656 31.179688 8.601562 31.335938 8.441406 C 31.492188 8.285156 31.613281 8.105469 31.699219 7.898438 C 31.785156 7.695312 31.828125 7.480469 31.828125 7.257812 C 31.828125 7.105469 31.773438 6.972656 31.664062 6.863281 C 31.554688 6.753906 31.421875 6.699219 31.269531 6.699219 C 31.113281 6.699219 30.984375 6.753906 30.875 6.863281 C 30.765625 6.972656 30.710938 7.105469 30.710938 7.257812 Z M 30.710938 7.257812 " fill-opacity="1" fill-rule="nonzero"/><path fill="#ffffff" d="M 28.871094 3.1875 C 28.96875 3.089844 29.078125 3.015625 29.203125 2.964844 C 29.328125 2.914062 29.457031 2.886719 29.59375 2.886719 C 29.730469 2.886719 29.859375 2.914062 29.984375 2.964844 C 30.109375 3.015625 30.21875 3.089844 30.316406 3.1875 C 30.425781 3.292969 30.554688 3.34375 30.707031 3.34375 C 30.859375 3.34375 30.992188 3.289062 31.097656 3.179688 C 31.207031 3.070312 31.261719 2.941406 31.261719 2.789062 C 31.261719 2.636719 31.210938 2.507812 31.105469 2.398438 C 30.902344 2.195312 30.671875 2.042969 30.410156 1.933594 C 30.148438 1.824219 29.875 1.773438 29.59375 1.773438 C 29.308594 1.773438 29.039062 1.824219 28.777344 1.933594 C 28.511719 2.042969 28.28125 2.195312 28.082031 2.398438 C 27.976562 2.507812 27.921875 2.636719 27.925781 2.789062 C 27.925781 2.941406 27.980469 3.070312 28.089844 3.179688 C 28.195312 3.289062 28.328125 3.34375 28.480469 3.34375 C 28.628906 3.34375 28.761719 3.292969 28.871094 3.1875 Z M 28.871094 3.1875 " fill-opacity="1" fill-rule="nonzero"/><path fill="#ffffff" d="M 10.609375 17.867188 C 10.632812 17.867188 10.65625 17.867188 10.679688 17.863281 C 10.832031 17.84375 10.957031 17.773438 11.050781 17.652344 C 11.144531 17.53125 11.183594 17.394531 11.164062 17.238281 C 10.988281 16.042969 11.039062 14.855469 11.304688 13.675781 C 11.574219 12.496094 12.046875 11.402344 12.722656 10.398438 C 12.816406 10.277344 12.855469 10.140625 12.839844 9.988281 C 12.820312 9.835938 12.753906 9.710938 12.632812 9.613281 C 12.511719 9.519531 12.375 9.476562 12.222656 9.496094 C 12.070312 9.511719 11.945312 9.582031 11.847656 9.703125 C 11.070312 10.820312 10.527344 12.042969 10.21875 13.367188 C 9.910156 14.695312 9.855469 16.03125 10.054688 17.378906 C 10.074219 17.519531 10.132812 17.632812 10.238281 17.726562 C 10.34375 17.820312 10.46875 17.867188 10.609375 17.867188 Z M 10.609375 17.867188 " fill-opacity="1" fill-rule="nonzero"/></svg>