<svg xmlns="http://www.w3.org/2000/svg" fill="#ffff" class="bi bi-envelope-open" viewBox="0 0 16 16" id="Envelope-Open--Streamline-Bootstrap" height="16" width="16"><desc>Envelope Open Streamline Icon: https://streamlinehq.com</desc><path d="M8.47 1.318a1 1 0 0 0 -0.94 0l-6 3.2A1 1 0 0 0 1 5.4v0.817l5.75 3.45L8 8.917l1.25 0.75L15 6.217V5.4a1 1 0 0 0 -0.53 -0.882zM15 7.383l-4.778 2.867L15 13.117zm-0.035 6.88L8 10.082l-6.965 4.18A1 1 0 0 0 2 15h12a1 1 0 0 0 0.965 -0.738ZM1 13.116l4.778 -2.867L1 7.383v5.734ZM7.059 0.435a2 2 0 0 1 1.882 0l6 3.2A2 2 0 0 1 16 5.4V14a2 2 0 0 1 -2 2H2a2 2 0 0 1 -2 -2V5.4a2 2 0 0 1 1.059 -1.765z" stroke-width="1"></path></svg>