<svg viewBox="-0.5 -0.5 16 16" fill="none" xmlns="http://www.w3.org/2000/svg" id="Phone--Streamline-Solar-Ar" height="16" width="16"><desc>Phone Streamline Icon: https://streamlinehq.com</desc><path d="m10.0629375 8.349375 -0.3305 -0.33237500000000003 0.3305 0.33237500000000003Zm0.2846875 -0.283 0.3305 0.33237500000000003 -0.3305 -0.33237500000000003Zm1.5103749999999998 -0.198 -0.22387500000000002 0.4118125 0.22387500000000002 -0.4118125Zm1.1940625 0.649125 -0.22387500000000002 0.4118125 0.22387500000000002 -0.4118125Zm0.3365 2.034375 0.3305 0.33237500000000003 -0.3305 -0.33237500000000003Zm-0.8878750000000001 0.88275 -0.3305 -0.33237500000000003 0.3305 0.33237500000000003Zm-0.828 0.41856249999999995 0.0435 0.46675 -0.0435 -0.46675Zm-6.1630875 -2.6490625000000003 0.3305125 -0.33243750000000005 -0.3305125 0.33243750000000005ZM2.50180625 3.59100625l-0.46799375 0.02659375 0.46799375 -0.02659375Zm4.04663125 0.90735625 0.3305 0.3324 -0.3305 -0.3324Zm0.09793750000000001 -1.6586875 0.37525000000000003 -0.28091875 -0.37525000000000003 0.28091875Zm-0.7880874999999999 -1.0527499999999999 -0.37525000000000003 0.28091875 0.37525000000000003 -0.28091875Zm-1.9448812500000001 -0.17765625000000002 0.3305125 0.3324 -0.3305125 -0.3324Zm-0.9810000000000001 0.97543125 -0.3305125 -0.3324 0.3305125 0.3324Zm4.60703125 4.60105 0.3305 -0.33237500000000003 -0.3305 0.33237500000000003Zm2.854 1.4960624999999999 0.2846875 -0.2830625 -0.6610625000000001 -0.6648125 -0.284625 0.2830625 0.661 0.6648125Zm1.2406875 -0.40162499999999995 1.1940625 0.649125 0.44775000000000004 -0.823625 -1.1940625 -0.649125 -0.44775000000000004 0.823625Zm1.4239375 1.93925 -0.8878750000000001 0.8828125 0.661 0.6648125 0.8878750000000001 -0.8828125 -0.661 -0.6648125Zm-1.4288750000000001 1.1670625c-0.9061874999999999 0.0844375 -3.2506875 0.0091875 -5.789075 -2.5148124999999997l-0.661025 0.6648125c2.7700375 2.7543125 5.4064749999999995 2.8888125 6.537100000000001 2.7834375l-0.087 -0.9334375Zm-5.789075 -2.5148124999999997c-2.4196125 -2.405875 -2.82041875 -4.4294062499999995 -2.8703125000000003 -5.30728125l-0.9359875 0.053193750000000005c0.0627875 1.10489375 0.55908125 3.3474 3.1452750000000003 5.918900000000001l0.661025 -0.6648125Zm0.8595750000000001 -3.86268125 0.17925 -0.17824375 -0.661 -0.66479375 -0.17925625 0.1782375 0.66100625 0.6648Zm0.3219375 -2.45025 -0.78809375 -1.0527499999999999 -0.75049375 0.5618375 0.7880874999999999 1.05275625 0.7505000000000001 -0.56184375ZM3.58289375 1.27686875l-0.9810000000000001 0.97543125 0.661025 0.6648 0.9810000000000001 -0.97543125 -0.661025 -0.6648Zm2.78629375 3.3997375c-0.33050625 -0.3324 -0.33095624999999995 -0.33195625 -0.33140625 -0.33150625 -0.00015000000000000001 0.00015000000000000001 -0.0006000000000000001 0.00060625 -0.0009062499999999999 0.0009124999999999999 -0.0006125 0.0006187499999999999 -0.0012374999999999999 0.00124375 -0.00186875 0.0018875 -0.0012687500000000001 0.0012937499999999998 -0.00258125 0.0026375 -0.00393125 0.004037499999999999 -0.00270625 0.00280625 -0.00556875 0.00584375 -0.008581249999999999 0.00911875 -0.00603125 0.00654375 -0.012650000000000002 0.01403125 -0.019737499999999998 0.0224875 -0.014168749999999999 0.01690625 -0.030225000000000002 0.037724999999999995 -0.047099999999999996 0.06263125 -0.03383125 0.04993125 -0.07069375 0.11595 -0.101975 0.19897499999999999 -0.06383125 0.16940625 -0.09805 0.392725 -0.05515 0.66925625 0.0839 0.5408000000000001 0.45634375 1.25515625 1.41040625 2.20378125l0.661 -0.6648125c-0.8928125 -0.88775625 -1.1055 -1.42800625 -1.145 -1.6826937499999999 -0.0188125 -0.12120624999999999 0.0006875000000000001 -0.1808625 0.0060625 -0.19498749999999998 0.00325 -0.008737499999999999 0.0048125 -0.009631250000000001 0.0008125 -0.0036625 -0.002 0.00291875 -0.0053125 0.007487499999999999 -0.010499999999999999 0.01364375 -0.0025625 0.0030812500000000002 -0.005625 0.00656875 -0.0091875 0.010456249999999999 -0.0018124999999999999 0.00194375 -0.0036875 0.0039875 -0.0058125 0.0061312499999999995 -0.001 0.001075 -0.0020625 0.00216875 -0.0031875000000000002 0.0032937500000000002 -0.0005625 0.0005625 -0.001125 0.0011312499999999999 -0.0016875000000000002 0.0017062499999999999 -0.00025 0.0002875 -0.0006875000000000001 0.000725 -0.000875 0.00086875 -0.0004375 0.0004375 -0.000875 0.000875 -0.331375 -0.331525Zm0.83975 2.84158125c0.954375 0.9489375 1.6720625 1.31825 2.21375 1.401375 0.2768125 0.0424375 0.5 0.0085625 0.6693125 -0.0545 0.083 -0.0309375 0.149125 -0.067375 0.199125 -0.10087499999999999 0.025 -0.01675 0.045875000000000006 -0.0326875 0.06281250000000001 -0.04675 0.008499999999999999 -0.007 0.016 -0.0135625 0.0225625 -0.0195625 0.0033125 -0.0029999999999999996 0.0063750000000000005 -0.0058125 0.0091875 -0.008499999999999999 0.0014375 -0.0013750000000000001 0.0027500000000000003 -0.0026875 0.0040625 -0.0039375l0.001875 -0.001875c0.0003125 -0.0003125 0.0008125 -0.0007499999999999999 0.0009375 -0.000875 0.0004375 -0.0004375 0.000875 -0.000875 -0.329625 -0.3333125 -0.3305 -0.33237500000000003 -0.33006250000000004 -0.33281249999999996 -0.329625 -0.33325l0.000875 -0.000875 0.0016875000000000002 -0.0016875000000000002c0.0011875 -0.0010624999999999999 0.00225 -0.0021249999999999997 0.0033125 -0.0031875000000000002 0.0021875 -0.0020625 0.0042499999999999994 -0.0039375 0.0061875 -0.00575 0.003875 -0.0035 0.007375 -0.006562500000000001 0.010499999999999999 -0.009062500000000001 0.006125 -0.005125 0.0106875 -0.008375 0.013500000000000002 -0.0103125 0.0058125 -0.003875 0.004625000000000001 -0.0021249999999999997 -0.004625000000000001 0.0013124999999999999 -0.0153125 0.0056875 -0.076625 0.025249999999999998 -0.19987499999999997 0.0063124999999999995 -0.2583125 -0.0395625 -0.8023750000000001 -0.25206249999999997 -1.6949375 -1.1395l-0.661 0.6648125ZM6.2335312499999995 1.50600625C5.5964625 0.6550125 4.343725 0.5203562500000001 3.58289375 1.27686875l0.661025 0.6648c0.33230000000000004 -0.33041875 0.9224749999999999 -0.2967875 1.23911875 0.126175l0.75049375 -0.5618375ZM2.9698 3.56440625c-0.012293749999999999 -0.21631874999999998 0.08691875 -0.44228125 0.29311875 -0.64730625L2.60189375 2.2523c-0.33582500000000004 0.33391875000000004 -0.5998375 0.80660625 -0.56808125 1.3653000000000002l0.9359875 -0.053193750000000005ZM12.1701875 11.10225c-0.17174999999999999 0.17081249999999998 -0.355875 0.267 -0.541 0.28425l0.087 0.9334375c0.459125 -0.0428125 0.8353125 -0.27475 1.115 -0.552875l-0.661 -0.6648125Zm-5.29125 -6.2714875c0.6153125 -0.6118250000000001 0.6610625000000001 -1.579575 0.1426875 -2.27200625l-0.7505000000000001 0.56184375c0.2521875 0.33685624999999997 0.21468750000000003 0.7790125000000001 -0.0531875 1.04536875l0.661 0.66479375Zm5.94925 4.09855c0.5111249999999999 0.277875 0.59075 0.93125 0.229875 1.290125l0.661 0.6648125c0.8376875 -0.8329375 0.579375 -2.22275 -0.443125 -2.7785625000000005l-0.44775000000000004 0.823625Zm-2.1500625 -0.5305625c0.24 -0.23862499999999998 0.6263125 -0.29775 0.9560000000000001 -0.1185625l0.44775000000000004 -0.823625c-0.6772499999999999 -0.3681875 -1.51775 -0.2665 -2.0648125 0.277375l0.6610625000000001 0.6648125Z" fill="#ffff" stroke-width="1"></path></svg>