<svg xmlns="http://www.w3.org/2000/svg" xmlns:xlink="http://www.w3.org/1999/xlink" width="45" zoomAndPan="magnify" viewBox="0 0 33.75 33.749998" height="45" preserveAspectRatio="xMidYMid meet" version="1.0"><defs><clipPath id="c1172879a9"><path d="M 19 25 L 25 25 L 25 33.5 L 19 33.5 Z M 19 25 " clip-rule="nonzero"/></clipPath><clipPath id="894cc1a9ad"><path d="M 25 25 L 27 25 L 27 33.5 L 25 33.5 Z M 25 25 " clip-rule="nonzero"/></clipPath><clipPath id="9a73157ac5"><path d="M 32 20 L 33.5 20 L 33.5 24 L 32 24 Z M 32 20 " clip-rule="nonzero"/></clipPath><clipPath id="dedd507602"><path d="M 27 25 L 33 25 L 33 33.5 L 27 33.5 Z M 27 25 " clip-rule="nonzero"/></clipPath></defs><path fill="#ffffff" d="M 25.414062 17.328125 L 26.570312 17.328125 L 26.570312 18.484375 L 25.414062 18.484375 Z M 25.414062 17.328125 " fill-opacity="1" fill-rule="nonzero"/><path fill="#ffffff" d="M 0 3.464844 L 0 16.171875 L 5.0625 16.171875 L 6.929688 15.238281 L 6.929688 4.398438 L 5.0625 3.464844 Z M 0 3.464844 " fill-opacity="1" fill-rule="nonzero"/><path fill="#ffffff" d="M 23.105469 4.269531 L 23.105469 4.523438 C 24.414062 2.601562 26.535156 1.355469 28.882812 1.179688 L 28.882812 0.578125 C 28.882812 0.257812 28.621094 0 28.304688 0 L 19.640625 0 L 19.640625 1.242188 L 20.691406 1.417969 C 22.089844 1.652344 23.105469 2.851562 23.105469 4.269531 Z M 23.105469 4.269531 " fill-opacity="1" fill-rule="nonzero"/><path fill="#ffffff" d="M 28.882812 9.195312 C 28.011719 9.070312 27.234375 8.671875 26.632812 8.085938 L 25.414062 8.085938 L 25.414062 9.242188 L 28.882812 9.242188 Z M 28.882812 9.195312 " fill-opacity="1" fill-rule="nonzero"/><path fill="#ffffff" d="M 21.949219 14.082031 L 21.949219 5.554688 L 20.792969 4.976562 L 20.792969 14.660156 Z M 21.949219 14.082031 " fill-opacity="1" fill-rule="nonzero"/><path fill="#ffffff" d="M 28.882812 20.214844 L 28.882812 19.640625 L 23.105469 19.640625 L 23.105469 21.949219 L 28.882812 21.949219 Z M 28.882812 20.214844 " fill-opacity="1" fill-rule="nonzero"/><path fill="#ffffff" d="M 23.105469 24.261719 L 28.882812 24.261719 L 28.882812 23.105469 L 23.105469 23.105469 Z M 23.105469 24.261719 " fill-opacity="1" fill-rule="nonzero"/><path fill="#ffffff" d="M 25.414062 12.707031 L 28.882812 12.707031 L 28.882812 13.863281 L 25.414062 13.863281 Z M 25.414062 12.707031 " fill-opacity="1" fill-rule="nonzero"/><path fill="#ffffff" d="M 31.191406 8.847656 C 30.832031 9.019531 30.445312 9.136719 30.035156 9.195312 L 30.035156 12.351562 L 31.191406 11.773438 Z M 31.191406 8.847656 " fill-opacity="1" fill-rule="nonzero"/><path fill="#ffffff" d="M 26.570312 5.199219 C 26.570312 6.792969 27.867188 8.085938 29.457031 8.085938 C 31.050781 8.085938 32.347656 6.792969 32.347656 5.199219 C 32.347656 3.605469 31.050781 2.308594 29.457031 2.308594 C 27.867188 2.308594 26.570312 3.605469 26.570312 5.199219 Z M 29.457031 4.042969 C 30.097656 4.042969 30.613281 4.558594 30.613281 5.199219 C 30.613281 5.835938 30.097656 6.355469 29.457031 6.355469 C 28.820312 6.355469 28.304688 5.835938 28.304688 5.199219 C 28.304688 4.558594 28.820312 4.042969 29.457031 4.042969 Z M 29.457031 4.042969 " fill-opacity="1" fill-rule="nonzero"/><path fill="#ffffff" d="M 28.882812 10.398438 L 25.414062 10.398438 C 24.777344 10.398438 24.261719 9.878906 24.261719 9.242188 L 24.261719 8.085938 C 24.261719 7.449219 24.777344 6.929688 25.414062 6.929688 L 25.8125 6.929688 C 25.558594 6.40625 25.414062 5.820312 25.414062 5.199219 C 25.414062 4.554688 25.570312 3.949219 25.839844 3.410156 C 24.828125 4.082031 24 5.035156 23.488281 6.191406 L 23.105469 7.054688 L 23.105469 15.59375 C 23.105469 15.914062 23.363281 16.171875 23.683594 16.171875 L 28.304688 16.171875 C 28.621094 16.171875 28.882812 15.914062 28.882812 15.59375 L 28.882812 15.019531 L 25.414062 15.019531 C 24.777344 15.019531 24.261719 14.5 24.261719 13.863281 L 24.261719 12.707031 C 24.261719 12.070312 24.777344 11.550781 25.414062 11.550781 L 28.882812 11.550781 Z M 28.882812 10.398438 " fill-opacity="1" fill-rule="nonzero"/><path fill="#ffffff" d="M 30.035156 21.371094 L 31.191406 21.371094 L 31.191406 22.527344 L 30.035156 22.527344 Z M 30.035156 21.371094 " fill-opacity="1" fill-rule="nonzero"/><g clip-path="url(#c1172879a9)"><path fill="#ffffff" d="M 19.667969 32.972656 C 19.648438 33.019531 19.640625 33.070312 19.640625 33.121094 C 19.640625 33.332031 19.808594 33.5 20.019531 33.5 L 20.757812 33.5 C 20.90625 33.5 21.042969 33.414062 21.105469 33.28125 L 24.261719 26.441406 L 24.261719 25.414062 L 22.90625 25.414062 Z M 19.667969 32.972656 " fill-opacity="1" fill-rule="nonzero"/></g><path fill="#ffffff" d="M 19.640625 4.621094 L 16.171875 4.621094 L 16.171875 15.019531 L 19.640625 15.019531 Z M 18.484375 13.863281 L 17.328125 13.863281 L 17.328125 11.550781 L 18.484375 11.550781 Z M 18.484375 8.085938 L 17.328125 8.085938 L 17.328125 5.777344 L 18.484375 5.777344 Z M 18.484375 8.085938 " fill-opacity="1" fill-rule="nonzero"/><g clip-path="url(#894cc1a9ad)"><path fill="#ffffff" d="M 25.414062 33.121094 C 25.414062 33.332031 25.585938 33.5 25.796875 33.5 L 26.191406 33.5 C 26.398438 33.5 26.570312 33.332031 26.570312 33.121094 L 26.570312 25.414062 L 25.414062 25.414062 Z M 25.414062 33.121094 " fill-opacity="1" fill-rule="nonzero"/></g><g clip-path="url(#9a73157ac5)"><path fill="#ffffff" d="M 32.347656 20.214844 L 33.5 20.214844 L 33.5 23.683594 L 32.347656 23.683594 Z M 32.347656 20.214844 " fill-opacity="1" fill-rule="nonzero"/></g><g clip-path="url(#dedd507602)"><path fill="#ffffff" d="M 29.078125 25.414062 L 27.726562 25.414062 L 27.726562 26.441406 L 30.882812 33.28125 C 30.941406 33.414062 31.078125 33.5 31.226562 33.5 L 31.964844 33.5 C 32.175781 33.5 32.347656 33.332031 32.347656 33.121094 C 32.347656 33.070312 32.335938 33.019531 32.316406 32.96875 Z M 29.078125 25.414062 " fill-opacity="1" fill-rule="nonzero"/></g><path fill="#ffffff" d="M 8.085938 4.621094 L 10.398438 4.621094 L 10.398438 15.019531 L 8.085938 15.019531 Z M 8.085938 4.621094 " fill-opacity="1" fill-rule="nonzero"/><path fill="#ffffff" d="M 11.550781 4.621094 L 15.019531 4.621094 L 15.019531 5.777344 L 11.550781 5.777344 Z M 11.550781 4.621094 " fill-opacity="1" fill-rule="nonzero"/><path fill="#ffffff" d="M 11.550781 11.550781 L 15.019531 11.550781 L 15.019531 12.707031 L 11.550781 12.707031 Z M 11.550781 11.550781 " fill-opacity="1" fill-rule="nonzero"/><path fill="#ffffff" d="M 11.550781 9.242188 L 15.019531 9.242188 L 15.019531 10.398438 L 11.550781 10.398438 Z M 11.550781 9.242188 " fill-opacity="1" fill-rule="nonzero"/><path fill="#ffffff" d="M 11.550781 13.863281 L 15.019531 13.863281 L 15.019531 15.019531 L 11.550781 15.019531 Z M 11.550781 13.863281 " fill-opacity="1" fill-rule="nonzero"/><path fill="#ffffff" d="M 11.550781 6.929688 L 15.019531 6.929688 L 15.019531 8.085938 L 11.550781 8.085938 Z M 11.550781 6.929688 " fill-opacity="1" fill-rule="nonzero"/></svg>