<svg xmlns="http://www.w3.org/2000/svg" xmlns:xlink="http://www.w3.org/1999/xlink" width="45" zoomAndPan="magnify" viewBox="0 0 33.75 33.749998" height="45" preserveAspectRatio="xMidYMid meet" version="1.0"><path fill="#ffffff" d="M 28.230469 9.035156 C 27.824219 8.730469 27.363281 8.492188 26.929688 8.226562 C 26.398438 8.015625 25.863281 7.808594 25.332031 7.601562 C 25.277344 7.597656 25.21875 7.605469 25.164062 7.589844 C 24.726562 7.464844 24.285156 7.371094 23.835938 7.308594 C 25.050781 5.894531 26.261719 4.476562 27.472656 3.058594 C 27.53125 2.992188 27.566406 2.90625 27.613281 2.828125 C 27.613281 2.765625 27.613281 2.699219 27.613281 2.636719 C 27.25 1.859375 26.882812 1.078125 26.519531 0.296875 C 26.425781 0.09375 26.273438 -0.00390625 26.046875 -0.00390625 C 23.957031 0 21.867188 0 19.777344 -0.00390625 C 19.574219 -0.00390625 19.429688 0.078125 19.324219 0.246094 C 18.855469 0.984375 18.386719 1.714844 17.917969 2.453125 C 17.878906 2.511719 17.855469 2.574219 17.824219 2.636719 C 17.824219 2.699219 17.824219 2.765625 17.824219 2.828125 C 17.941406 3.09375 18.15625 3.28125 18.335938 3.496094 C 19.390625 4.746094 20.445312 5.988281 21.5 7.234375 C 17.054688 7.59375 13.15625 10.964844 12.304688 15.390625 C 11.597656 19.050781 12.605469 22.226562 15.21875 24.882812 C 15.519531 25.191406 15.863281 25.453125 16.207031 25.753906 C 16.714844 25.035156 17.015625 24.296875 17.164062 23.488281 C 17.199219 23.289062 17.171875 23.160156 17.023438 23.015625 C 14.429688 20.503906 13.921875 16.519531 15.796875 13.46875 C 18.066406 9.785156 22.855469 8.6875 26.542969 11.011719 C 29.863281 13.105469 31.167969 17.5625 29.140625 21.207031 C 27.863281 23.511719 25.851562 24.796875 23.246094 25.132812 C 22.964844 25.167969 22.894531 25.289062 22.820312 25.515625 C 22.621094 26.117188 22.398438 26.714844 22.175781 27.308594 C 22.121094 27.464844 22.035156 27.609375 21.960938 27.769531 C 22.015625 27.78125 22.042969 27.789062 22.070312 27.789062 C 27.085938 27.960938 31.578125 24.429688 32.464844 19.492188 C 33.246094 15.15625 31.765625 11.65625 28.230469 9.035156 " fill-opacity="1" fill-rule="nonzero"/><path fill="#ffffff" d="M 17.488281 14.355469 C 17.429688 14.304688 17.355469 14.261719 17.292969 14.21875 C 16.847656 14.75 16.511719 15.566406 16.339844 16.453125 C 16.300781 16.652344 16.339844 16.78125 16.488281 16.925781 C 19.082031 19.464844 19.582031 23.449219 17.699219 26.46875 C 15.003906 30.792969 9.066406 31.414062 5.53125 27.746094 C 3.230469 25.363281 2.722656 21.570312 4.355469 18.71875 C 5.667969 16.425781 7.667969 15.125 10.289062 14.796875 C 10.527344 14.769531 10.589844 14.667969 10.652344 14.464844 C 10.824219 13.910156 11.019531 13.363281 11.21875 12.820312 C 11.300781 12.597656 11.421875 12.394531 11.535156 12.160156 C 11.429688 12.152344 11.355469 12.140625 11.28125 12.144531 C 7.683594 12.175781 4.804688 13.617188 2.683594 16.535156 C 2.375 16.960938 2.121094 17.433594 1.84375 17.886719 C 1.636719 18.417969 1.425781 18.953125 1.21875 19.484375 C 1.128906 19.929688 1.023438 20.371094 0.949219 20.820312 C 0.0507812 26.339844 3.851562 31.660156 9.34375 32.582031 C 14.84375 33.507812 20.089844 30.011719 21.183594 24.566406 C 22 20.46875 20.695312 17.046875 17.488281 14.355469 " fill-opacity="1" fill-rule="nonzero"/></svg>