<svg xmlns="http://www.w3.org/2000/svg" xmlns:xlink="http://www.w3.org/1999/xlink" width="45" zoomAndPan="magnify" viewBox="0 0 33.75 33.749998" height="45" preserveAspectRatio="xMidYMid meet" version="1.0"><defs><clipPath id="570018b93d"><path d="M 0.382812 2 L 33.140625 2 L 33.140625 32.929688 L 0.382812 32.929688 Z M 0.382812 2 " clip-rule="nonzero"/></clipPath></defs><g clip-path="url(#570018b93d)"><path fill="#ffffff" d="M 15.640625 10.128906 C 15.292969 9.878906 14.976562 9.542969 14.660156 9.253906 L 13.019531 7.769531 C 10.839844 5.773438 11.996094 2.28125 14.882812 2.195312 C 15.511719 2.066406 16.277344 2.425781 16.828125 2.699219 C 19.347656 0.945312 22.648438 3.683594 21.515625 6.5 C 21.023438 7.726562 18.992188 9.09375 18.003906 10.128906 L 26.007812 10.117188 C 27.871094 10.101562 28.203125 11.503906 28.199219 12.960938 L 28.199219 19.941406 C 29.199219 19.917969 30.125 20.6875 30.355469 21.648438 C 30.507812 22.285156 30.4375 23.285156 30.4375 23.964844 L 30.4375 27.324219 L 33.113281 27.324219 L 33.117188 28.933594 C 33.128906 31.796875 32.144531 32.527344 29.371094 32.527344 L 19.164062 32.527344 L 3.160156 32.539062 C 2.40625 32.542969 1.71875 32.222656 1.191406 31.695312 C 0.390625 30.890625 0.410156 30.003906 0.410156 28.949219 L 0.414062 27.324219 C 1.328125 27.324219 2.25 27.292969 3.164062 27.324219 L 3.160156 23.785156 C 3.160156 22.019531 3.007812 20.070312 5.375 19.941406 L 5.375 13.027344 C 5.371094 11.820312 5.535156 10.511719 7 10.191406 C 7.390625 10.101562 7.789062 10.128906 8.1875 10.128906 L 13.605469 10.128906 C 14.285156 10.128906 14.964844 10.144531 15.640625 10.128906 Z M 14.953125 3.832031 C 13.800781 3.964844 13.121094 5.183594 13.773438 6.117188 C 13.984375 6.417969 14.292969 6.667969 14.566406 6.914062 L 15.75 7.96875 C 16.113281 8.289062 16.457031 8.636719 16.828125 8.949219 C 17.292969 8.492188 17.785156 8.0625 18.269531 7.621094 L 19.066406 6.910156 C 19.539062 6.488281 20.023438 6.132812 20.0625 5.441406 C 20.140625 4.066406 18.472656 3.328125 17.503906 4.261719 C 16.210938 5.503906 16.441406 3.851562 14.953125 3.832031 Z M 7.785156 11.777344 C 6.878906 11.800781 7.023438 12.484375 7.027344 13.148438 L 7.027344 14.738281 C 7.714844 15.347656 8.203125 15.9375 9.207031 15.875 C 10.144531 15.820312 10.46875 15.121094 11.167969 14.648438 C 13.996094 12.730469 15.34375 16.035156 16.953125 15.925781 C 17.738281 15.875 18.207031 15.089844 18.808594 14.683594 C 20.226562 13.722656 21.792969 14.066406 22.972656 15.183594 C 24.488281 16.65625 25.316406 15.683594 26.558594 14.652344 L 26.558594 13.066406 C 26.558594 12.835938 26.648438 12.011719 26.410156 11.867188 C 26.125 11.691406 24.152344 11.777344 23.753906 11.777344 Z M 12.746094 15.796875 C 11.363281 16.066406 10.917969 18.179688 8.167969 17.433594 C 7.757812 17.320312 7.417969 17.105469 7.027344 16.957031 C 7.027344 17.949219 7.054688 18.949219 7.027344 19.941406 L 26.558594 19.941406 L 26.558594 17.878906 C 26.558594 17.535156 26.574219 17.191406 26.558594 16.851562 C 25.15625 17.703125 23.703125 17.914062 22.292969 16.816406 C 21.585938 16.269531 21.027344 15.328125 19.890625 15.992188 C 19.527344 16.207031 19.246094 16.546875 18.921875 16.816406 C 17.703125 17.832031 15.878906 17.800781 14.664062 16.8125 C 14.011719 16.28125 13.6875 15.730469 12.746094 15.796875 Z M 5.375 21.582031 C 4.496094 21.730469 4.828125 23.050781 4.828125 23.824219 L 4.828125 27.324219 L 28.761719 27.324219 L 28.765625 22.726562 C 28.777344 21.4375 28.535156 21.574219 27.257812 21.578125 L 10.339844 21.582031 C 8.6875 21.582031 7.027344 21.550781 5.375 21.582031 Z M 30.632812 28.972656 L 2.058594 28.972656 C 2.054688 29.789062 2.023438 30.578125 2.917969 30.886719 C 3.277344 30.929688 3.632812 30.894531 3.992188 30.890625 L 28.078125 30.890625 C 28.785156 30.886719 30.441406 31.050781 30.996094 30.628906 C 31.535156 30.21875 31.472656 29.570312 31.46875 28.972656 C 31.195312 28.945312 30.90625 28.976562 30.632812 28.972656 Z M 30.632812 28.972656 " fill-opacity="1" fill-rule="nonzero"/></g></svg>